STARTFONT 2.1
COMMENT
COMMENT Converted from OpenType font "Font 90 Icons.ttf" by "otf2bdf 3.0".
COMMENT
FONT -FreeType-Font 90 Icons-Medium-R-Normal--62-450-100-100-P-231-ISO10646-1
SIZE 45 100 100
FONTBOUNDINGBOX 67 66 0 -13
STARTPROPERTIES 19
FOUNDRY "FreeType"
FAMILY_NAME "Font 90 Icons"
WEIGHT_NAME "Medium"
SLANT "R"
SETWIDTH_NAME "Normal"
ADD_STYLE_NAME ""
PIXEL_SIZE 62
POINT_SIZE 450
RESOLUTION_X 100
RESOLUTION_Y 100
SPACING "P"
AVERAGE_WIDTH 231
CHARSET_REGISTRY "ISO10646"
CHARSET_ENCODING "1"
FONT_ASCENT 52
FONT_DESCENT 12
COPYRIGHT "Typeface © (el-harrak.blogspot.com). <darrati10@gmail.com>. All Rights Reserved"
_OTF_FONTFILE "Font 90 Icons.ttf"
_OTF_PSNAME "Font 90 Icons"
ENDPROPERTIES
CHARS 242
STARTCHAR 0000
ENCODING 0
SWIDTH 0 0
DWIDTH 0 0
BBX 0 0 0 0
BITMAP
ENDCHAR
STARTCHAR 001D
ENCODING 29
SWIDTH 0 0
DWIDTH 0 0
BBX 0 0 0 0
BITMAP
ENDCHAR
STARTCHAR 0020
ENCODING 32
SWIDTH 256 0
DWIDTH 16 0
BBX 0 0 0 0
BITMAP
ENDCHAR
STARTCHAR 0021
ENCODING 33
SWIDTH 992 0
DWIDTH 62 0
BBX 61 60 0 -10
BITMAP
000001FFFC000000
00000FFFFFC00000
00007FFFE7F00000
0000FFFFFC7C0000
0003FFFFFE1E0000
0007FFFFFF878000
001FFFFFFFC1C000
003FFFFFFFE0E000
007FFFFFFFE07000
00FFFFFFFFF03800
01FFFFFFFFF01C00
01FFFFFFFFF00E00
03FFFFF07FF80700
07FFFFE03FF80300
0FFFFFE01FF80180
0FFFFFE01FF801C0
1FFFFFE01FF800C0
1FFFFFE03FF800E0
1FFFFFF03FF80060
3FFFFFF8FFF00060
3FFFFFFFFFF00030
7FFFFFFFFFF00030
7FFFFFFFFFE00030
7FFFFFFFFFE00030
7FFFFFFFFFC00018
7FFFFFFFFF800018
7FFFFFFFFF000018
7FFFFFFFFE000018
FFFFFFFFF8000018
FFFFFFFFC0000018
FFFFFFE000000018
FFFFFF0000000018
7FFFFC0000000018
7FFFF80000000018
7FFFF00000000018
7FFFE00000000018
7FFFE00000000030
7FFFC00000000030
3FFFC00000000030
3FFF800000000070
3FFF800780000060
1FFF800FC0000060
1FFF801FC00000C0
0FFF801FE00000C0
0FFF801FE0000180
07FF801FE0000380
07FF800FC0000300
03FF800780000600
01FF800000000E00
00FFC00000001C00
00FFC00000003800
007FE00000007000
003FE0000000E000
000FF0000003C000
0007F80000078000
0003FC00001E0000
0000FF00007C0000
00003FC007F00000
00000FFFFF800000
000000FFFC000000
ENDCHAR
STARTCHAR 0022
ENCODING 34
SWIDTH 992 0
DWIDTH 62 0
BBX 61 48 0 -4
BITMAP
000003FFFF000000
000007FFFF000000
000007C00F800000
0000070003800000
0000070003800000
0000070003800000
0000070003800000
0000070003800000
0FFFFFFFFFFFFFC0
3FFFFFFFFFFFFFF0
7FFFFFFFFFFFFFF0
7FFFFFFFFFFFFFF8
7FFFFFFFFFFFFFF8
FFFFFFFFFFFFFFF8
FFFFFFFFFFFFFFF8
FFFFFFFFFFFFFFF8
FFFFFFFFFFFFFFF8
FFFFFFFFFFFFFFF8
FFFFFFFFFFFFFFF8
FFFFFFFFFFFFFFF8
FFFFFFFFFFFFFFF8
FFFFFFFFFFFFFFF8
FFFFFFFFFFFFFFF8
FFFFFFFFFFFFFFF8
FFFFFFFFFFFFFFF8
FFFFFFFFFFFFFFF8
FFFFFFFFFFFFFFF8
FFFFFFFFFFFFFFF8
FFFFFFFFFFFFFFF8
FFFFFFFFFFFFFFF8
FFFFFFFFFFFFFFF8
FFFFFFFFFFFFFFF8
FFFFFFFFFFFFFFF8
FFFFFFFFFFFFFFF8
FFFFFFFFFFFFFFF8
FFFFFFFFFFFFFFF8
FFFFFFFFFFFFFFF8
FFFFFFFFFFFFFFF8
FFFFFFFFFFFFFFF8
FFFFFFFFFFFFFFF8
FFFFFFFFFFFFFFF8
FFFFFFFFFFFFFFF8
FFFFFFFFFFFFFFF8
7FFFFFFFFFFFFFF8
7FFFFFFFFFFFFFF8
7FFFFFFFFFFFFFF0
3FFFFFFFFFFFFFF0
1FFFFFFFFFFFFFC0
ENDCHAR
STARTCHAR 0023
ENCODING 35
SWIDTH 992 0
DWIDTH 62 0
BBX 57 64 2 -13
BITMAP
00003FE000000000
0001FFFE00000000
1807FFFFC0000000
FE1FFFFFF0000000
FE3FFFFFFE000000
7E7FFFFFFFC01800
7E7FFFFFFFFFF800
7E7FFFFFFFFFF800
7F7FFFFFFFFFF800
7F3FFFFFFFFFF800
7F3FFFFFFFFFFC00
3F3FFFFFFFFFFC00
3F3FFFFFFFFFFC00
3F3FFFFFFFFFFC00
3F9FFFFFFFFFFC00
3F9FFFFFFFFFFC00
1F9FFFFFFFFFFC00
1F9FFFFFFFFFFE00
1F9FFFFFFFFFFE00
1FCFFFFFFFFFFE00
1FCFFFFFFFFFFE00
1FCFFFFFFFFFFE00
0FCFFFFFFFFFFE00
0FCFFFFFFFFFFF00
0FCFFFFFFFFFFF00
0FE7FFFFFFFFFF00
0FE7FFFFFFFFFF00
0FE7FFFFFFFFFF00
07E7FFFFFFFFFF00
07E7FFE0FFFFFF80
07F3FE0007FFFF80
07F3F00001FFFF80
07F3E000003FFF80
03F38000000FFF80
03F200000003FF80
03F0000000007F80
03F8000000000000
03F8000000000000
03F8000000000000
01F8000000000000
01F8000000000000
01FC000000000000
01FC000000000000
01FC000000000000
01FC000000000000
00FC000000000000
00FC000000000000
00FE000000000000
00FE000000000000
00FE000000000000
007E000000000000
007E000000000000
007E000000000000
007F000000000000
007F000000000000
007F000000000000
003F000000000000
003F000000000000
003F800000000000
003F800000000000
003F800000000000
001F800000000000
001F800000000000
001F000000000000
ENDCHAR
STARTCHAR 0024
ENCODING 36
SWIDTH 992 0
DWIDTH 62 0
BBX 61 60 0 -9
BITMAP
00FE000000000000
01FF000000000000
03FF800000000000
07FFC00000000000
0FFFE00000000000
1FFFE00000000000
3FFFF00000000000
7FFFF80000000000
7FFFFC0000000000
7FFFFF0000000000
FFFFFF8000000000
FFFFFFC000000000
7FFFFFE000000000
7FFFFFF000000000
3FFFFFFC00000000
3FFFFFFA00000000
0FFFFFF700000000
07FFFFEF80000000
03FFFFDFE0000000
01FFFFBFF0000000
00FFFF7FF8000000
007FFEFFFC000000
003FFDFFF8000000
001FFBFFF0000000
000FF7FFE0000000
0007EFFFC0000000
0007DFFF80000000
0003BFFF00000000
00017FFE00000000
0000FFFD00000000
0000FFFF80000000
00007FF3C0000000
00003FE1E0000000
00001FC0F0000000
00000F8078000000
00000F003C000000
000006001E000000
000002000F000000
0000000007800000
0000000001C00000
0000000000E00000
0000000000600000
0000000000300000
0000000000180000
00000000000C0000
0000000000060000
0000000000030000
0000000000018000
000000000000C000
0000000000006000
0000000000003000
0000000000001800
0000000000000400
0000000000000200
0000000000000100
0000000000000080
0000000000000040
0000000000000020
0000000000000010
0000000000000008
ENDCHAR
STARTCHAR 0025
ENCODING 37
SWIDTH 992 0
DWIDTH 62 0
BBX 58 64 2 -12
BITMAP
0000003F00000000
0000007F80000000
000000FF80000000
000000FFC0000000
000001FFC0000000
000001FFC0000000
000003FFE0000000
00001FFFFC000000
00007FFFFF800000
0001FFFFFFC00000
0003FFFFFFF00000
000FFFFFFFF80000
001FFFFFFFFC0000
1C3FFFFFFFFE3C00
3FFFFE7F1FFFFF00
7FFFF87F07FFFF80
FFFFE07F01FFFF80
FFFFC03F00FFFF80
FFFF003E007FFF80
FFFE003E003FFF80
FFFF003E007FFF80
7FFF801E00FFFF00
3FFFC01C01FFFE00
1FFFE01C03FFFC00
0FFFF01C07FFFC00
1FFFF81C0FFFFC00
1FFFFC1E1FFFFE00
1FE3FFFFFFE1FE00
1FE03FFFFE01FE00
1FE007FFF001FE00
1FC001FFE001FE00
1FC001FFE001FE00
1FC001FFE001FE00
1FC001FFE001FE00
1FE007FFF001FE00
1FE03FFFFE01FE00
1FE1FFFFFFE1FE00
1FFFFE3E1FFFFE00
1FFFFC1E0FFFFC00
0FFFF01E07FFFC00
0FFFE01E03FFFC00
3FFFC01E01FFFF00
7FFF803E00FFFF80
7FFF003E007FFF80
FFFE003F003FFFC0
FFFF003F007FFFC0
FFFF807F00FFFFC0
7FFFE07F01FFFF80
7FFFF87F87FFFF80
3FFFFE7F9FFFFF00
0E3FFFFFFFFE1C00
001FFFFFFFFC0000
000FFFFFFFF80000
0003FFFFFFF00000
0001FFFFFFC00000
00007FFFFF800000
00001FFFFC000000
000003FFE0000000
000000FFC0000000
000000FFC0000000
000000FFC0000000
000000FF80000000
0000007F80000000
0000003F00000000
ENDCHAR
STARTCHAR 0026
ENCODING 38
SWIDTH 992 0
DWIDTH 62 0
BBX 61 60 0 -10
BITMAP
000001FFFC000000
00000FFFFF800000
00003FFFFFF00000
0000FFE01FFC0000
0003FE0001FE0000
0007F000003F8000
001FC000000FC000
003F00000007E000
007E00FFF801F000
00FC03FFFF00F800
01F00FFFFFC07C00
01E03FFFFFE03E00
03C07FFFFFF81F00
07C0FFFFFFFC0F00
0781FFFFFFFE0780
0F03FFFFFFFF0780
0F07FFFFFFFF83C0
1E0FFFFFFFFF83C0
1E1FEFFFFFFFC1E0
3C1FC7FFFFFFC1E0
3C3FE3FFFF7FE0F0
383FF1FFFE3FE0F0
783FF8FFFC7FF0F0
787FFC7FF8FFF070
787FFE3FF1FFF078
707FFF1FE3FFF878
707FFF8FC7FFF878
707FFFC78FFFF878
F0FFFFE31FFFF878
F0FFFFF03FFFF878
F0FFFFF83FFFF878
F0FFFFF83FFFF878
707FFFF87FFFF878
707FFFFCFFFFF878
707FFFFFFFFFF878
787FFFFFFFFFF078
787FFFFFFFFFF070
783FFFFFFFFFF0F0
383FFFFFFFFFE0F0
3C1FFFFFFFFFE0E0
3C1FFFFFFFFFC1E0
1E0FFFFFFFFFC1E0
1E0FFFFFFFFF83C0
0F07FFFFFFFF03C0
0F03FFFFFFFF0780
0781FFFFFFFE0F80
07C0FFFFFFFC0F00
03E07FFFFFF01E00
01F03FFFFFE03E00
00F80FFFFF807C00
007C03FFFE00F800
003E007FF003F000
001F80000007E000
000FC000001FC000
0007F000007F0000
0001FE0003FE0000
0000FFFCFFF80000
00003FFFFFE00000
000007FFFF800000
000000FFF8000000
ENDCHAR
STARTCHAR 0027
ENCODING 39
SWIDTH 992 0
DWIDTH 62 0
BBX 60 62 1 -11
BITMAP
0000018000000000
0000FFFC00000000
0003FFFF80000000
000FFFFFE0000000
003FFFFFF0000000
007FFFFFFC000000
01FFFFFFFE000000
03FFFFFFFF000000
07FFFFFFFF800000
07FFFFFFFFC00000
0FFFC00FFFE00000
1FFF0003FFE00000
1FFC0000FFF00000
3FF807807FF00000
3FF00FC03FF80000
7FF00FC01FF80000
7FE00FC00FFC0000
FFC00FC00FFC0000
FFC00FC007FC0000
FF800FC007FC0000
FF800FC007FE0000
FF87FFFF87FE0000
FF8FFFFFC3FE0000
FF8FFFFFC3FE0000
FF8FFFFFC3FE0000
FF8FFFFFC3FE0000
FF87FFFF83FE0000
FF800FC007FE0000
FF800FC007FC0000
FFC00FC007FC0000
FFC00FC00FFC0000
7FE00FC00FFC0000
7FE00FC01FF80000
3FF00FC03FF80000
3FF807807FF00000
1FFC0000FFF00000
1FFF0001FFF80000
0FFFC007FFFC0000
0FFFFC7FFFFE0000
07FFFFFFFFFF0000
03FFFFFFFFFF8000
01FFFFFFFFFFC000
00FFFFFFFFFFE000
003FFFFFFFFFF000
001FFFFFFFFFF800
0007FFFFFFFFFC00
0000FFFE3FFFFE00
00000FC01FFFFF00
000000000FFFFF80
0000000007FFFFC0
0000000003FFFFE0
0000000001FFFFE0
0000000000FFFFF0
00000000007FFFF0
00000000003FFFF0
00000000001FFFF0
00000000000FFFF0
000000000007FFE0
000000000003FFE0
000000000001FFC0
000000000000FF80
0000000000001C00
ENDCHAR
STARTCHAR 0028
ENCODING 40
SWIDTH 992 0
DWIDTH 62 0
BBX 61 62 0 -11
BITMAP
00000FF800000000
0000FFFF00000000
0003FFFFE0000000
000FFFFFF8000000
003FFFFFFC000000
007FFFFFFE000000
00FFFFFFFF000000
01FFFFFFFF800000
03FFFFFFFFC00000
07FFF81FFFE00000
07FFC003FFF00000
0FFF0000FFF00000
1FFE00007FF80000
1FFC00001FFC0000
3FF800001FFC0000
3FF000000FFC0000
3FF0000007FE0000
7FE0000007FE0000
7FE0000003FE0000
7FC0000003FE0000
7FC0000003FF0000
7FC3FFFFC1FF0000
7FC7FFFFE1FF0000
FFC7FFFFE1FF0000
7FC7FFFFE1FF0000
7FC7FFFFC1FF0000
7FC1FFFF83FF0000
7FC0000003FF0000
7FC0000003FE0000
7FE0000003FE0000
7FE0000007FE0000
3FF0000007FE0000
3FF800000FFC0000
1FF800001FFC0000
1FFC00003FF80000
0FFF00007FF80000
0FFF8001FFFC0000
07FFE007FFFE0000
03FFFFFFFFFF0000
03FFFFFFFFFF8000
01FFFFFFFFFFC000
00FFFFFFFFFFE000
003FFFFFFFFFF000
001FFFFFFFFFF800
0007FFFFFFFFFC00
0001FFFFDFFFFE00
00007FFE0FFFFF00
000000C007FFFF80
0000000003FFFFC0
0000000001FFFFE0
0000000000FFFFF0
00000000007FFFF0
00000000003FFFF8
00000000001FFFF8
00000000000FFFF8
000000000007FFF8
000000000003FFF8
000000000001FFF0
000000000000FFF0
0000000000007FE0
0000000000003FC0
0000000000000600
ENDCHAR
STARTCHAR 0029
ENCODING 41
SWIDTH 992 0
DWIDTH 62 0
BBX 60 46 1 -3
BITMAP
1FFFFFFFFFFFFF80
7FFFFFFFFFFFFFE0
FFFFFFFFFFFFFFF0
FFFFFFFFFFFFFFF0
FC000000000007F0
FE00000000000FF0
FF00000000001FF0
FF80000000003FF0
EFC0000000007FF0
E7E000000000FCF0
E3F000000001F8F0
E1F800000003F0F0
E0FC00000007E0F0
E07E0000000FC0F0
E03F0000001F80F0
E01F8000003F00F0
E00FC000007E00F0
E007E00000FC00F0
E003F00001F800F0
E001F80003F000F0
E000FC0007E000F0
E0007E000FC000F0
E0003F001F8000F0
E0001F803F8000F0
E0003FC07FC000F0
E0007FF0FFE000F0
E000FBF9FFF000F0
E001F1FFF9F800F0
E003E0FFF0FC00F0
E007C07FE07E00F0
E00F801F803F00F0
E01F0000001F80F0
E03E0000000FC0F0
E07C00000007E0F0
E0F800000003F0F0
E1F000000001F8F0
E3E000000000FCF0
E7C0000000007EF0
EF80000000003FF0
FF00000000001FF0
FE00000000000FF0
FC000000000007F0
FFFFFFFFFFFFFFF0
FFFFFFFFFFFFFFF0
FFFFFFFFFFFFFFF0
3FFFFFFFFFFFFFC0
ENDCHAR
STARTCHAR 002A
ENCODING 42
SWIDTH 992 0
DWIDTH 62 0
BBX 53 64 4 -12
BITMAP
000001FC000000
000001FC000000
000003FE000000
000003FE000000
000003FE000000
000003FE000000
000003FE000000
000003FE000000
000003FE000000
000003FE000000
000003FE000000
000003FE000000
000003FE000000
000003FE000000
000003FE000000
000003FE000000
001E03FE03C000
003F83FE1FC000
003FE3FE3FE000
003FFBFFFFE000
003FFFFFFFC000
001FFFFFFF8000
000FFFFFFF0000
0007FFFFFE0000
0003FFFFFC0000
0FFDFFFFF9FFC0
1FFEFFFFF3FFE0
1FFF7FFFE7FFE0
0FFFBFFFCFFFC0
67FFDFFF9FFF98
F3FFEFFF3FFF38
F9FFF7FE7FFE78
FCFFFBFCFFFCF8
FE7FFDF9FFF9F8
FF3FFEF3FFF3F8
FF9FFF0FFFE7F8
FFCFFFFFFFCFF8
FFE7FFFFFF9FF8
FFF3FFFFFF3FF8
FFF9FFFFFE7FF8
FFFCFFFFFCFFF8
FFFE7FFFF9FFF8
FFFF3FFFF3FFF8
FFFF9FFFE7FFF8
FFFFCFFFCFFFF8
FFFFC7FF8FFFF8
FFFF83FF07FFF8
FFFF31FE77FFF8
FFFE78FCFBFFF8
FFFCFC71FDFFF8
FFF9FF03FEFFF8
FFF3FFFFFF7FF8
FFE7FFFFFFBFF8
FFCFFFFFFFDFF8
FF9FFFFFFFEFF8
FF3FFFFFFFF7F8
FE7FFFFFFFFBF8
FCFFFFFFFFFDF8
F9FFFFFFFFFEF8
F3FFFFFFFFFF78
E7FFFFFFFFFFB8
4FFFFFFFFFFFD0
1FFFFFFFFFFFE0
1FFFFFFFFFFFE0
ENDCHAR
STARTCHAR 002B
ENCODING 43
SWIDTH 992 0
DWIDTH 62 0
BBX 60 60 1 -10
BITMAP
FFFFFFFFFFFFFFF0
FFFFFFFFFFFFFFF0
FFFFFFFFFFFFFFF0
FFFFFFFFFFFFFFF0
FFFFFFFFFFFFFFF0
FFFFFFFFFFFFFFF0
FFFFFFFFFFFFFFF0
FFFFFFFFFFFFFFF0
FC000FFFFF0007F0
FC001FFFFF8007F0
FE003FFFFFC007F0
FE007FFFFFE007F0
FE00FFFFFFE007F0
FE003FFFFFC007F0
FE001FFFFF8007F0
FE000FFFFF0007F0
FE0007FFFE0007F0
FE1003FFFC0087F0
FE3007FFFE00C7F0
FE780FFFFF01E7F0
FEFC1FFFFF83F7F0
FFFE3FFFFFC7FFF0
FFFF7FFFFFEFFFF0
FFFFFFFFFFFFFFF0
FFFFFFFFFFFFFFF0
FFFFFFFFFFFFFFF0
FFFFFFFFFFFFFFF0
FFFFFFFFFFFFFFF0
FFFFFFFFFFFFFFF0
FFFFFFFFFFFFFFF0
FFFFFFFFFFFFFFF0
FFFFFFFFFFFFFFF0
FFFFFFFFFFFFFFF0
FFFFFFFFFFFFFFF0
FFFFFFFFFFFFFFF0
FFFFFFFFFFFFFFF0
FFFFFFFFFFFFFFF0
FFFF7FFFFFEFFFF0
FFFE3FFFFFC7F7F0
FEFC1FFFFF83E7F0
FE780FFFFF01C7F0
FE3007FFFE0087F0
FE0003FFFC0007F0
FE0007FFFE0007F0
FE000FFFFF0007F0
FE001FFFFF8007F0
FE003FFFFFC007F0
FE00FFFFFFE007F0
FE007FFFFFC007F0
FE003FFFFF8007F0
FC001FFFFF0007F0
FC000FFFFE0007F0
FFFFFFFFFFFFFFF0
FFFFFFFFFFFFFFF0
FFFFFFFFFFFFFFF0
FFFFFFFFFFFFFFF0
FFFFFFFFFFFFFFF0
FFFFFFFFFFFFFFF0
FFFFFFFFFFFFFFF0
FFFFFFFFFFFFFFF0
ENDCHAR
STARTCHAR 002C
ENCODING 44
SWIDTH 992 0
DWIDTH 62 0
BBX 61 60 0 -10
BITMAP
000000000003E000
0000000000FFF000
000000001FFFF800
000000003FFFFC00
000000007FFFFE00
00000000FFFFFF00
00000001FFFFFF80
00000003FFFFFFC0
00000007FFFFFFE0
0000000FFFFF3FF0
0000001FFFFE1FF8
0000003FFFFC0FF8
0000007FFFF80FF8
000000FFFFFC1FF0
000001FFFFFE3FF0
000003FFFFFF7FF0
000007FFFFFFFFF0
00000FFFFFFFFFF0
00001FFFFFFFFFF0
00003FFFFFFFFFE0
00007FFFFFFFFFE0
0000FFFFFFFFFFE0
0001FFFFFFFFFFE0
0003FFFFFFFFFFE0
0007FFFFFFFFFFE0
000FDFFFFFFFFFC0
001F8FFFFFFFFFC0
003F87FFFFFFFF80
007FC3FFFFFFFF00
00FFE1FFFFFFFE00
01F9F0FFFFFFFC00
03F0F87FFFFFF800
07F87C3FFFFFF000
0FFC3E1FFFFFE000
1FFE1F0FFFFFC000
3FFF0F87FFFF8000
FFFF87C3FFFF0000
7FFFC3E1FFFE0000
3FFFE1F0FFFC0000
1FFFF0F87FF80000
0FFFF87C3FF00000
07FFFC3E1FE00000
03FFFE1F1FC00000
01FFFF0FBF800000
00FFFF87FF000000
007FFFC3FE000000
003FFFE1FC000000
001FFFF3F8000000
000FFFFFF0000000
0007FFFFE0000000
0003FFFFC0000000
0001FFFF80000000
0000FFFF00000000
00007FFE00000000
00003FFC00000000
00001FF800000000
00000FF000000000
000007E000000000
000003C000000000
0000018000000000
ENDCHAR
STARTCHAR 002D
ENCODING 45
SWIDTH 992 0
DWIDTH 62 0
BBX 61 60 0 -10
BITMAP
000000FFFC000000
00000FFFFF800000
00003FFFFFF00000
0000FFFFFFFC0000
0003FF0003FE0000
0007F800007F8000
001FE000001FC000
003F80000007E000
007E00000003F000
00FC00000001F800
01F8000000007C00
01FC000000C03E00
03FE000001C01F00
07CF000003C01F00
0787800007C00F80
0F83C0000FC00780
0F01E0000FC007C0
1E00F0001FC003C0
1E0078003FC001E0
3C003C007FC001E0
3C001F00FFC001F0
3C000001FFC000F0
78000FFFFFC000F0
78001FFFFFC000F0
78001FFFFFC00078
78001FFFFFC00078
78001FFFFFC00078
70001FFFFFC00078
F0001FFFFFC00078
F0001FFFFFC00078
F0001FFFFFC00078
F0001FFFFFC00078
70001FFFFFC00078
78001FFFFFC00078
78001FFFFFC00078
78001FFFFFC00078
78001FFFFFC000F0
78000003FFC000F0
3C000001FFC000F0
3C000000FFC001E0
3E0000007FC001E0
1E0000003FC803E0
1F0000001FC803C0
0F0000000FCC07C0
0F80000007CE0780
0780000003CF0F80
07C0000001C79F00
03E0000001C3FE00
01F000000081FE00
00F800000000FC00
00FC00000001F800
007E00000003F000
001F8000000FE000
000FE000001FC000
0007F80000FF0000
0003FF0007FE0000
0000FFFFFFF80000
00003FFFFFE00000
000007FFFF800000
000000FFFC000000
ENDCHAR
STARTCHAR 002E
ENCODING 46
SWIDTH 992 0
DWIDTH 62 0
BBX 52 64 5 -12
BITMAP
0FFFFFFFFFFF80
0FFFFFFFFFFFC0
0E0000000003C0
0E0000000001C0
0E0000000001C0
0E0000000001C0
0E0000000001C0
0E0000000001C0
0E0000000001C0
0E0000000001C0
0E0000000001C0
0E0000000001C0
0E0000000001C0
0E0000000001C0
0E0000000001C0
0E0000000001C0
0E0000000001C0
0E0000000001C0
0E0000000001C0
0E0000000001C0
0E0000000001C0
0E0000000001C0
0E0000000001C0
0E0000000001C0
0E0000000001C0
0E0000000001C0
0E0000000001C0
0E0000000001C0
0E0000000001C0
0E0000000001C0
0F0000000003C0
0FFFFFFFFFFFC0
0FFFFFFFFFFF80
00000000000000
00000000000000
00000000000000
0FFFFFFFFFFF80
0FFFFFFFFFFFC0
0FFFFFFFFFFFC0
0FFFFFFFFFFFC0
0FFFFFFF801FC0
0FFFFFFF801FC0
0FFFFFFF801FC0
0FFFFFFFFFFFC0
0FFFFFFFFFFFC0
0FFFFFFFFFFFC0
0FFFFFFFFFFFC0
0FFFFFFFFFFFC0
07FFFFFFFFFF00
00000070000000
00000070000000
00000070000000
00000070000000
00000070000000
00000070000000
00000070000000
00007FFFF00000
0000FFFFF00000
0000FFFFF00000
0000FFFFF00000
FFFFFFFFFFFFF0
FFFFFFFFFFFFF0
FFFFFFFFFFFFF0
0000FFFFF00000
ENDCHAR
STARTCHAR 002F
ENCODING 47
SWIDTH 992 0
DWIDTH 62 0
BBX 61 62 0 -11
BITMAP
0080001FE0000400
01C0007FF8000E00
01C001FFFC001E00
01E003FFFE003E00
01E007FFFF003C00
00F007FFFF807C00
00F00FFFFF807800
00F80FFFFFC07800
20780FFFFFC0F830
707C1FFFFFC0F078
787C1FFFFFC0F078
783C1FFFFFC1F0F0
783C1FFFFFC1F0F0
3C3E1FFFFFC1E0F0
3C3E1FFFFFC3E1F0
3C3E1FFFFFC3E1F0
3E1E1FFFFFC3E1E0
3E1F1FFFFFC3E1E0
3E1F1FFFFFC3E3E0
3E1F1FFFFFC3E3E0
1E1F1FFFFFC7C3E0
1E1F1FFFFFC7C3E0
1E1F1FFFFFC7C3E0
1F1F1FFFFFC7C3E0
1F1F1FFFFFC7C3E0
1F1F1FFFFFC7C3E0
1F1F1FFFFFC7C3E0
1F1F1FFFFFC7C3E0
1E1F1FFFFFC7C3E0
1E1F1FFFFFC7C3E0
1E1F1FFFFFC7C3E0
3E1F1FFFFFC3E3E0
3E1F1FFFFFC3E1E0
3E1F1FFFFFC3E1E0
3C3E1FFFFFC3E1E0
3C3E1FFFFFC3E1F0
3C3E1FFFFFC1E1F0
7C3E1FFFFFC1F0F0
783C0FFFFFC1F0F0
787C0FFFFFC1F078
787C0FFFFF80F078
F07807FFFF80F878
707807FFFF00F838
00F803FFFF007800
00F001FFFE007C00
00F000FFF8003C00
01E0007FF0003C00
01E0007FF0001E00
01C0007FF0001E00
01C0007FF0000E00
0000007FF0000000
0000007FF0000000
0000007FF0000000
0000007FF0000000
0000007FF0000000
0000007FF0000000
0000007FF0000000
0000007FF0000000
0000007FF0000000
0000007FF0000000
0000003FF0000000
0000001FE0000000
ENDCHAR
STARTCHAR 0030
ENCODING 48
SWIDTH 992 0
DWIDTH 62 0
BBX 61 60 0 -10
BITMAP
000000FFFC000000
00000FFFFF800000
00003FFFFFF00000
0000FFFFFFFC0000
0003FFFFFFFE0000
0007FFFFFFFF8000
000FFFFFFFFFC000
003FFFFFFFFFE000
007FFFFFFFFFF000
00FFFFFFFFFFF800
00FFCFFFFFDFFC00
01FF8FFFFF87FE00
03FE07FFFF83FE00
07FC07FFFF01FF00
07F803FFFF00FF80
0FF003FFFE007F80
0FF001FFFC003FC0
1FE000FFFC003FC0
1FC000FFF8001FE0
3FC0007FF8000FE0
3F80007FF0000FF0
3F80003FF0000FF0
7F80003FE00007F0
7F00003FF00007F0
7F0000FFF80007F8
7F0000FFFC0003F8
7F0001F07C0003F8
7F0001E03C0003F8
7F0001C01E0003F8
FF0001C01E0003F8
FFFFFFC01FFFFFF8
7FFFFFC01FFFFFF8
7FFFFFE03FFFFFF8
7FFFFFF03FFFFFF8
7FFFFFFDFFFFFFF8
7FFFFFFFFFFFFFF8
7FFFFFFFFFFFFFF0
7FFFFFDFDFFFFFF0
3FFFFFC00FFFFFF0
3FFFFF800FFFFFF0
3FFFFF8007FFFFE0
1FFFFF0007FFFFE0
1FFFFE0003FFFFC0
0FFFFE0003FFFFC0
0FFFFC0001FFFF80
07FFFC0000FFFF80
07FFF80000FFFF00
03FFF000007FFF00
01FFF000007FFE00
01FFE000003FFC00
00FFF000003FF800
007FFC0001FFF000
003FFF800FFFE000
000FFFFFFFFFC000
0007FFFFFFFF8000
0003FFFFFFFE0000
0000FFFFFFFC0000
00003FFFFFF00000
00000FFFFFC00000
000001FFFC000000
ENDCHAR
STARTCHAR 0031
ENCODING 49
SWIDTH 992 0
DWIDTH 62 0
BBX 59 64 1 -12
BITMAP
000000FFF0000000
000001FFF0000000
000001FFF0000000
000001FFF0000000
000001FFF0000000
000001FFF0000000
000001FFF0000000
000021FFF0800000
0000E1FFF0E00000
0003E1FFF0F80000
0007E1FFF0FC0000
000FE1FFF0FF0000
003FE1FFF0FF8000
007FE1FFF0FFC000
00FFE1FFF0FFE000
01FFE1FFF0FFF000
01FFE1FFF0FFF800
03FFC1FFF07FFC00
07FF81FFF03FFC00
0FFF01FFF00FFE00
0FFE01FFF007FE00
1FFC01FFF003FF00
1FF801FFF003FF00
3FF001FFF001FF80
3FF001FFF000FF80
3FE001FFF000FFC0
7FE001FFF0007FC0
7FC001FFF0007FC0
7FC001FFF0007FC0
7FC001FFF0003FE0
FF8001FFF0003FE0
FF8001FFF0003FE0
FF8001FFF0003FE0
FF8001FFF0003FE0
FF8001FFF0003FE0
FF8000FFF0003FE0
FF80000000003FE0
FF80000000003FE0
FF80000000003FE0
7FC0000000003FE0
7FC0000000003FE0
7FC0000000007FC0
7FC0000000007FC0
7FE000000000FFC0
3FE000000000FFC0
3FF000000001FF80
1FF800000001FF80
1FF800000003FF00
0FFC00000007FF00
0FFE0000000FFE00
07FF0000001FFE00
07FF8000003FFC00
03FFE00000FFF800
01FFF80001FFF800
00FFFE000FFFF000
007FFFFBFFFFE000
003FFFFFFFFFC000
001FFFFFFFFF8000
000FFFFFFFFE0000
0007FFFFFFFC0000
0001FFFFFFF00000
00007FFFFFC00000
00001FFFFF000000
000001FFF8000000
ENDCHAR
STARTCHAR 0032
ENCODING 50
SWIDTH 992 0
DWIDTH 62 0
BBX 58 64 2 -12
BITMAP
0000003F00000000
000000FF80000000
000000FF80000000
000000FFC0000000
000001FFC0000000
000001FFC0000000
000001FFC0000000
000001FFC0000000
000000FFC0000000
000000FF80000000
000000FF80000000
000000FF80000000
000000FF80000000
0C00007F80003C00
3F80007F0000FF00
7FE0007F0001FF80
FFF0007F0007FF80
FFF8003F000FFF80
FFFC003E001FFF80
FFFE003E003FFF80
FFFF003E007FFF80
7FFF801E00FFFF00
3FFFC01C01FFFE00
1FFFE01C03FFFC00
07FFF01C07FFF000
00FFF81C0FFF8000
003FFC3E1FFC0000
0003FFFFFFC00000
00003FFFFE000000
000007FFF0000000
000001FFE0000000
000001FFE0000000
000001FFE0000000
000001FFE0000000
000007FFF0000000
00003FFFFE000000
0001FFFFFFE00000
001FFE3E1FFE0000
00FFFC1E0FFFC000
03FFF01E07FFF800
0FFFE01E03FFFC00
3FFFC01E01FFFF00
7FFF803E00FFFF80
FFFF003E007FFF80
FFFE003F003FFF80
FFFC003F001FFFC0
FFF8007F000FFFC0
FFF0007F0007FF80
7FC0007F0001FF80
3F80007F8000FF00
0C0000FF80001C00
000000FF80000000
000000FF80000000
000000FFC0000000
000000FFC0000000
000000FFC0000000
000001FFC0000000
000001FFC0000000
000001FFC0000000
000000FFC0000000
000000FFC0000000
000000FF80000000
0000007F80000000
0000003F00000000
ENDCHAR
STARTCHAR 0033
ENCODING 51
SWIDTH 992 0
DWIDTH 62 0
BBX 60 58 1 -9
BITMAP
0000000400000000
0000000400000000
0000000600000000
0000000E00000000
0000000F00000000
0000001F00000000
0000001F80000000
0000003F80000000
0000003FC0000000
0000007FC0000000
0000007FE0000000
000000FFE0000000
000000FFF0000000
000001FFF0000000
000001FFF8000000
000003FFF8000000
000003FFFC000000
000007FFFC000000
000007FFFE000000
00003FFFFFC00000
001FFFFFFFFF8000
0FFFFFFFFFFFFE00
FFFFFFFFFFFFFFF0
7FFFFFFFFFFFFFE0
3FFFFFFFFFFFFFC0
1FFFFFFFFFFFFF00
0FFFFFFFFFFFFE00
07FFFFFFFFFFFC00
03FFFFFFFFFFF800
01FFFFFFFFFFF000
00FFFFFFFFFFE000
007FFFFFFFFFC000
003FFFFFFFFF8000
001FFFFFFFFF0000
000FFFFFFFFE0000
0007FFFFFFFC0000
0003FFFFFFF80000
0003FFFFFFF80000
0003FFFFFFF80000
0003FFFFFFF80000
0003FFFFFFF80000
0003FFFFFFFC0000
0003FFFFFFFC0000
0007FFFFFFFC0000
0007FFFFFFFC0000
0007FFFFFFFC0000
0007FFFFFFFC0000
0007FFFFFFFE0000
0007FFF9FFFE0000
000FFFE07FFE0000
000FFF801FFE0000
000FFE0007FE0000
000FF80001FF0000
000FE00000FF0000
000F8000003F0000
001E0000000F0000
0018000000030000
0010000000008000
ENDCHAR
STARTCHAR 0034
ENCODING 52
SWIDTH 992 0
DWIDTH 62 0
BBX 60 44 1 -2
BITMAP
1FFFFFFFFFFFFF80
3FFFFFFFFFFFFF80
1FFFFFFFFFFFFF80
0FFFFFFFFFFFFF00
C7FFFFFFFFFFFE70
E3FFFFFFFFFFFCF0
F1FFFFFFFFFFF9F0
F8FFFFFFFFFFF3F0
FC7FFFFFFFFFE7F0
FE3FFFFFFFFFCFF0
FF1FFFFFFFFF9FF0
FF8FFFFFFFFF3FF0
FFC7FFFFFFFE7FF0
FFE3FFFFFFFCFFF0
FFF1FFFFFFF9FFF0
FFF8FFFFFFF3FFF0
FFFE7FFFFFE7FFF0
FFFF3FFFFFCFFFF0
FFFF9FFFFF9FFFF0
FFFFCFFFFF3FFFF0
FFFFE7FFFE7FFFF0
FFFFE3FFFCFFFFF0
FFFFF1FFF8FFFFF0
FFFFE0FFF0FFFFF0
FFFFCC7FE77FFFF0
FFFF9E3FCFBFFFF0
FFFF3F1F1FDFFFF0
FFFE7F843FEFFFF0
FFFCFFE07FF7FFF0
FFF9FFFFFFFBFFF0
FFF3FFFFFFFDFFF0
FFE7FFFFFFFEFFF0
FFCFFFFFFFFF7FF0
FF9FFFFFFFFFBFF0
FF3FFFFFFFFFDFF0
FE7FFFFFFFFFEFF0
FCFFFFFFFFFFF7F0
F9FFFFFFFFFFFBF0
F3FFFFFFFFFFFDF0
E7FFFFFFFFFFFEF0
CFFFFFFFFFFFFF60
1FFFFFFFFFFFFF80
3FFFFFFFFFFFFF80
1FFFFFFFFFFFFF80
ENDCHAR
STARTCHAR 0035
ENCODING 53
SWIDTH 992 0
DWIDTH 62 0
BBX 61 47 0 -5
BITMAP
0000000700000000
0000000F80FF8000
0000003FE0FF8000
00000078F0FF8000
000001F07CFF8000
000003C21EFF8000
000007870FFF8000
00001E1FC3FF8000
00003C3FE1FF8000
0000F8FFF87F8000
0001E1FFFC3F8000
0007C3FFFF0F8000
000F0FFFFF878000
003E1FFFFFC1E000
00787FFFFFF0F000
01F0FFFFFFF87C00
03C3FFFFFFFE1E00
0F87FFFFFFFF0F80
1E1FFFFFFFFFC3C0
3C3FFFFFFFFFE1F0
F03FFFFFFFFFF078
603FFFFFFFFFF038
003FFFFFFFFFF000
003FFFFFFFFFF000
003FFFFFFFFFF000
003FFFFFFFFFF000
003FFFFFFFFFF000
003FFFC00FFFF000
003FFFC00FFFF000
003FFFC00FFFF000
003FFFC00FFFF000
003FFFC00FFFF000
003FFFC00FFFF000
003FFFC00FFFF000
003FFFC00FFFF000
003FFFC00FFFF000
003FFFC00FFFF000
003FFFC00FFFF000
003FFFC00FFFF000
003FFFC00FFFF000
003FFFC00FFFF000
003FFFC00FFFF000
003FFFC00FFFF000
003FFFC00FFFF000
003FFFC00FFFF000
003FFFC00FFFE000
001FFFC00FFFC000
ENDCHAR
STARTCHAR 0036
ENCODING 54
SWIDTH 992 0
DWIDTH 62 0
BBX 60 64 1 -12
BITMAP
00180000001E0000
007E0000003F8000
00FF0000007FC000
01FF800000FFC000
01FF800000FFC000
01FF800000FFC000
01FF800000FFC000
01FF800000FFC000
00FF0000007F8000
007E0000003F0000
003C0000000C0000
0000000000000000
0FFFF00003FFF000
3FFFFC0007FFF800
7FFFFE000FFFFC00
FFFFFF001FFFFE00
FFFFFF001FFFFE00
FFFFFF003FFFFF00
FFFFFF003FFFFF00
FFFFFF003EFFEF00
F7FFEF003DFFEF80
F7FFEF007DFFEF80
F7FFEF007DFFE780
F7FFEF007BFFF780
F7FFEF00FBFFF7C0
F7FFEF00FBFFF7C0
F7FFEF00FBFFFBC0
F7FFEF00F7FFFBE0
F7FFEF01F7FFFBE0
F7FFEF01F7FFF9E0
F7FFEF01EFFFFDE0
F7FFEF03EFFFFDF0
F7FFEF03EFFFFDF0
F7FFEF03EFFFFEF0
F7FFEF009FFFFE60
F7FFEF001FFFFE00
E7FFE7001FFFFE00
07E7E0003FFFFF00
07E7E0003FFFFF00
07E7E0003FFFFF00
07E7E0003FFFFF80
07E7E0007FFFFF80
07E7E0007FFFFF80
07E7E0007FFFFF80
07E7E00001FBE000
07E7E00001FBE000
07E7E00001FBE000
07E7E00001FBE000
07E7E00001FBE000
07E7E00001FBE000
07E7E00001FBE000
07E7E00001FBE000
07E7E00001FBE000
07E7E00001FBE000
07E7E00001FBE000
07E7E00001FBE000
07E7E00001FBE000
07E7E00001FBE000
07E7E00001FBE000
07E7E00001FBE000
07E7E00001FBE000
07E7E00001FBE000
03E7C00000F3E000
01C3800000E1C000
ENDCHAR
STARTCHAR 0037
ENCODING 55
SWIDTH 992 0
DWIDTH 62 0
BBX 60 46 1 -3
BITMAP
00007FF000000000
0003FFFE00000000
000FFFFFC0000000
003FF87FE0000000
007FE01FF8000000
01FFC00FFC000000
03FF800FFE000000
07FF0007FF000000
07FF0007FF800000
0FFF0007FFC00000
1FFF0007FFC00000
1FFF0007FFE00000
3FFF8007FFE00000
3FFF800FFFF00000
7FFFC00FFFF00000
7FFFE03FFFF80000
FE07FDFF83F80000
FC03FFFE00F80000
F801FFFC00780000
F000FFFC007C0000
F000FFF8003C0000
E0007FF8003C0000
E0007FF8003C0000
E0007FF8003C0000
F000FFF8003C0000
F000FFF8007C0000
F801FFFC007C0000
F803FFFE00F80000
FE07FFFF01F80000
FFFFE03FFFF80000
7FFFC01FFFF80000
7FFF800FFFF00000
3FFF8007FFF00000
3FFF0007FFE00000
1FFF0007FFE00000
1FFF0007FFC00000
0FFF0007FFC00000
07FF0007FFC00000
07FF8007FFC000F0
03FF800FFFE003F0
00FFC01FFDF01FF0
007FF07FF9FFFFE0
003FFFFFE0FFFF80
000FFFFFC07FFC00
0003FFFE003FF000
00007FF000000000
ENDCHAR
STARTCHAR 0038
ENCODING 56
SWIDTH 992 0
DWIDTH 62 0
BBX 48 64 7 -12
BITMAP
3FFFFFFFFFFC
7FFFFFFFFFFE
FFFFFFFFFFFE
FFFFFFFFFFFF
FFFFFFFFFFFF
F8000000003F
F8000000001F
F8000000001F
F8000000001F
F8000000001F
F8000000001F
F8000000001F
F8000000001F
F8000000001F
F8000000001F
F8000000001F
F8000000003F
FFFFFFFFFFFF
FFFFFFFFFFFF
FFFFFFFFFFFF
FFFFFFFFFFFF
FFFFFFFFFFFF
FC07F00FC03F
F803F00FC03F
F803F00FC03F
F803F00FC03F
F803F00FC03F
F803F00FC03F
F803F00FC03F
F803F00FC03F
FFFFFFFFFFFF
FFFFFFFFFFFF
FFFFFFFFFFFF
FFFFFFFFFFFF
FFFFFFFFFFFF
FFFFFFFFFFFF
FC03F00FC03F
F803F00FC03F
F803F00FC03F
F803F00FC03F
F803F00FC03F
F803F00FC03F
F803F00FC03F
F803F00FC03F
FFFFFFFFFFFF
FFFFFFFFFFFF
FFFFFFFFFFFF
FFFFFFFFFFFF
FFFFFFFFFFFF
FFFFFFFFFFFF
F803F00FC03F
F803F00FC03F
F803F00FC03F
F803F00FC03F
F803F00FC03F
F803F00FC03F
F803F00FC03F
FC03F00FC03F
FFFFFFFFFFFF
FFFFFFFFFFFF
FFFFFFFFFFFF
FFFFFFFFFFFE
7FFFFFFFFFFE
3FFFFFFFFFFC
ENDCHAR
STARTCHAR 0039
ENCODING 57
SWIDTH 992 0
DWIDTH 62 0
BBX 61 58 0 -9
BITMAP
7000000000000000
7C00000000000000
FE00000000000000
7F00000000000000
3F80000000000000
0FC0000000000000
07C0000000000000
03E0000000000000
03F03FFFFFFFFFF8
01F03FFFFFFFFFF0
00F83FFFFFFFFFF0
00F83FFFFFFFFFE0
007C3FFFFFFFFFE0
007C1FFFFFFFFFC0
003C1FFFFFFFFFC0
003E1FFFFFFFFFC0
003E1FFFFFFFFF80
001E1FFFFFFFFF80
001F1FFFFFFFFF00
001F0FFFFFFFFF00
000F0FFFFFFFFE00
000F0FFFFFFFFE00
000F8FFFFFFFFC00
000F8FFFFFFFFC00
00078FFFFFFFF800
000787FFFFFFF800
000787FFFFFFF000
0007C7FFFFFFF000
0007C7FFFFFFE000
0007C7FFFFFFE000
0003C00000000000
0003C00000000000
0003C00000000000
0003C00000000000
0003E00000000000
0003E00000000000
0003E00000000000
0003FFFFFFFFFE00
0001FFFFFFFFFF00
0001FFFFFFFFFF80
0001FFFFFFFFFF80
0000FFFFFFFFFF00
0000000000000000
0000000000000000
0000000000000000
0000200000004000
0001FC000003F800
0003FE000007FE00
0007FF000007FE00
0007FF80000FFF00
0007FF80000FFF00
0007FF80000FFF00
0007FF80000FFF00
0007FF80000FFF00
0007FF00000FFF00
0003FF000007FE00
0001FE000003FC00
0000F8000001F800
ENDCHAR
STARTCHAR 003A
ENCODING 58
SWIDTH 976 0
DWIDTH 61 0
BBX 61 60 0 -10
BITMAP
0000000001FF0000
000000000FFFE000
000000003FFFF800
000000007FFFFC00
00000001FFFFFE00
00000003FFFFFF00
00000003FFFFFF80
00000007FFFE3FC0
0000000FFFF80FC0
0000000FFFF807E0
0000001FFFF007E0
0000001FFFF007F0
0000003FFFF007F0
0000003FFFF007F0
0000003FFFF007F8
0000003FFFF80FF8
0000003FFFFE3FF8
0000003FFFFFFFF8
0000003FFFFFFFF8
0000003FFFFFFFF8
0000003FFFFFFFF8
0000003FFFFFFFF0
0000003FFFFFFFF0
0000001FFFFFFFF0
0000009FFFFFFFE0
0000018FFFFFFFE0
0000038FFFFFFFC0
000007C7FFFFFFC0
00000FC3FFFFFF80
00001FE1FFFFFF00
00003FF0FFFFFE00
00007FF87FFFFC00
0000FFFC3FFFF000
0001FFFE0FFFC000
0003FFFF00FE0000
0007FFFFC0000000
000FFFFFF8000000
001FFFFFF0000000
003FFFFC00000000
007FFFFC00000000
00FFFFFC00000000
01FFFFFC00000000
03FFFFC000000000
07FFFFC000000000
0FFFFFC000000000
1FFFFFC000000000
3FFF800000000000
3FFF800000000000
7FFF800000000000
7FFF800000000000
7FFF800000000000
FFFF800000000000
FFFF800000000000
7FFF800000000000
7FF8000000000000
7FF8000000000000
3FF8000000000000
1FF8000000000000
0FF8000000000000
07F8000000000000
ENDCHAR
STARTCHAR 003B
ENCODING 59
SWIDTH 992 0
DWIDTH 62 0
BBX 61 60 0 -10
BITMAP
0000000780000000
0000000780000000
0000000780000000
0000000780000000
0000000780000000
0000000780000000
0000000780000000
0000000780000000
0000000780000000
0000000780000000
0000000780000000
0000000780000000
0000000780000000
0000000780000000
0000000780000000
0000000780000000
0000000780000000
0000000780000000
0000000780000000
0000000780000000
0000000780000000
0000000780000000
0000000780000000
0000000780000000
0000000780000000
0000000780000000
0000000780000000
0000000780000000
FFFFFFFFFFFFFFF8
FFFFFFFFFFFFFFF8
FFFFFFFFFFFFFFF8
FFFFFFFFFFFFFFF8
0000000780000000
0000000780000000
0000000780000000
0000000780000000
0000000780000000
0000000780000000
0000000780000000
0000000780000000
0000000780000000
0000000780000000
0000000780000000
0000000780000000
0000000780000000
0000000780000000
0000000780000000
0000000780000000
0000000780000000
0000000780000000
0000000780000000
0000000780000000
0000000780000000
0000000780000000
0000000780000000
0000000780000000
0000000780000000
0000000780000000
0000000780000000
0000000780000000
ENDCHAR
STARTCHAR 003C
ENCODING 60
SWIDTH 992 0
DWIDTH 62 0
BBX 61 49 0 -4
BITMAP
0000000300000000
0000000780000000
0000000780000000
0000000FC0000000
0000001FC0000000
0000001FE0000000
0000003FF0000000
0000003FF0000000
0000007FF8000000
000000FFF8000000
000000FDFC000000
000001F8FE000000
000001F87E000000
000003F07F000000
000007F03F000000
000007E03F800000
00000FC01FC00000
00000FC00FC00000
00001F800FE00000
00003F8007E00000
00003F0007F00000
00007F0003F00000
00007E0001F80000
0000FC0001FC0000
0001FC0000FC0000
0001F80000FE0000
0003F800007E0000
0003F000003F0000
0007E000003F8000
000FE000001F8000
000FC000001FC000
001FC000000FC000
001F80000007E000
003F00000007F000
007F00000003F000
007E00000003F800
00FE00000001F800
00FC00000000FC00
01F800000000FE00
03F8000000007E00
03F0000000007F00
07F0000000003F00
07E0000000001F80
0FC0000000001F80
1FC0000000000FC0
1F80000000000FE0
3F800000000007E0
3F000000000003F0
FE000000000003F8
ENDCHAR
STARTCHAR 003D
ENCODING 61
SWIDTH 992 0
DWIDTH 62 0
BBX 61 60 0 -10
BITMAP
000000FFFC000000
00000FFFFF800000
00003FE03FE00000
0000FE0001F80000
0003F000003E0000
0007C000000F8000
001F00000007C000
003C00000001E000
007800000000F000
00F0000000007800
01E0000000001C00
01C3FFFFC0001E00
0383FFFFF8000F00
07007F83FE000700
07003F00FF000380
0E003F003F800380
0E003F001FC001C0
1C003F001FC001C0
1C003F000FE000E0
38003F000FE000E0
38003F000FE00060
30003F000FE00070
70003F000FE00070
70003F000FE00030
70003F001FC00030
60003F001FC00038
60003F003F800038
60003F007F000038
E0003F03FC000038
E0003FFFF0000038
E0003FFFC0000038
E0003F0FC0000038
60003F0FE0000038
60003F07F0000038
60003F03F8000038
70003F01F8000030
70003F01FC000070
70003F00FE000070
30003F007E000070
38003F007F000060
38003F003F8000E0
1C003F001F8000E0
1C003F000FC001C0
0E003F000FE001C0
0E003F0007F00380
07007F8003F80380
0780FFC001FC0700
0387FFF801FF0E00
01C0000000001E00
01E0000000003C00
00F0000000007800
007800000000F000
003E00000001E000
000F00000007C000
0007C000001F0000
0003F000007E0000
0000FE0003F80000
00003FFCFFE00000
000007FFFF800000
000000FFF8000000
ENDCHAR
STARTCHAR 003E
ENCODING 62
SWIDTH 976 0
DWIDTH 61 0
BBX 61 60 0 -10
BITMAP
000000FFF8000000
000007FFFF800000
00003FF07FE00000
0000FE0001F80000
0003F000007E0000
0007C000000F8000
001F00000007C000
003C00000001E000
007800000000F000
00F0000000007800
01E00001800C3C00
01C0007FFE1C1E00
038001FE3FFC0F00
070007C003FC0700
07001F8001FC0380
0E003E00007C0380
0E007C00003C01C0
1C00F800003C01C0
1C01F800001C00E0
3803F000000C00E0
3803F000000C0060
3007E00000040070
7007E00000020070
700FE00000000030
700FE00000000030
600FC00000000038
601FC00000000038
E01FC00000000038
E01FC00000000038
E01FC00000000038
E01FC00000000038
E01FC00000000038
601FC00000000038
601FC00000000038
600FE00000000038
700FE00000000030
700FE00000000030
7007E00000000070
3007F00000000070
3807F00000000060
3803F800000600E0
1C01F800000E00E0
1C00FC00001C01C0
0E007E00003801C0
0E003F8000F00380
07001FE003C00380
07000FFF7F800700
038003FFFE000E00
01C0007FF0001E00
01E0000000003C00
00F0000000007800
007800000000F000
003E00000001E000
001F00000007C000
0007C000001F8000
0003F000007E0000
0000FE0003F80000
00003FF8FFE00000
000007FFFF800000
000000FFF8000000
ENDCHAR
STARTCHAR 003F
ENCODING 63
SWIDTH 992 0
DWIDTH 62 0
BBX 60 60 1 -10
BITMAP
000001FFF0000000
00000FFFFF000000
00007FFFFFC00000
0001FFFFFFF00000
0003FFFFFFFC0000
000FFFFFFFFE0000
001FFFFFFFFF8000
003FFE000FFFC000
007FF00001FFE000
00FFC000007FF000
01FF8000001FF800
03FE0000000FFC00
07FC00000007FC00
0FF800000003FE00
0FF000000001FF00
1FE000000000FF00
1FC0000000007F80
3FC0000000003F80
3F80000000003FC0
7F80000000001FC0
7F00000000001FC0
7F00000000000FE0
FE00000000000FE0
FE00000000000FE0
FE000000000007E0
FE000000000007F0
FC000000000007F0
FC000000000007F0
FC000000000007F0
FC000000000007F0
FC000000000007F0
FC000000000007F0
FC000000000007F0
FC000000000007F0
FE000000000007F0
FE000000000007E0
FE00000000000FE0
FE00000000000FE0
7F00000000000FE0
7F00000000001FC0
7F80000000001FC0
3F80000000003FC0
3FC0000000003F80
1FC0000000007F80
1FE000000000FF00
0FF000000001FF00
0FF800000003FE00
07FC00000007FC00
03FE0000000FFC00
01FF8000001FF800
01FFC000007FF000
00FFF00001FFE000
003FFE0007FFC000
001FFFFBFFFF8000
000FFFFFFFFF0000
0007FFFFFFFC0000
0001FFFFFFF00000
00007FFFFFE00000
00001FFFFF000000
000001FFF8000000
ENDCHAR
STARTCHAR 0040
ENCODING 64
SWIDTH 992 0
DWIDTH 62 0
BBX 61 60 0 -10
BITMAP
0000000200000000
0000000300000000
0000000700000000
0000000780000000
0000000F80000000
0000000FC0000000
0000001FC0000000
0000001FE0000000
0000003FE0000000
0000003FF0000000
0000007FF0000000
0000007FF8000000
000000FFF8000000
000000FFFC000000
000001FFFC000000
000001FFFE000000
000003FFFE000000
000003FFFF000000
000007FFFF000000
000007FFFF800000
00000FFFFF800000
00000FFFFFC00000
00001FFFFFC00000
00001FFFFFE00000
00003FFFFFE00000
00003FFFFFF00000
00007FFFFFF00000
00007FFFFFF80000
0000FFFFFFF80000
0000FFFFFFFC0000
0001FFFFFFFC0000
0001FFFFFFFE0000
0003FFFFFFFE0000
0003FFFFFFFF0000
0007FFFFFFFF0000
0007FFFFFFFF8000
000FFFFFFFFF8000
000FFFFFFFFFC000
001FFFFFFFFFC000
001FFFFFFFFFE000
003FFFFFFFFFE000
003FFFFFFFFFF000
007FFFFFFFFFF000
007FFFFFFFFFF800
00FFFFFFFFFFF800
00FFFFFFFFFFFC00
01FFFFFFFFFFFC00
01FFFFFFFFFFFE00
03FFFFFFFFFFFE00
03FFFFFFFFFFFF00
07FFFFFFFFFFFF00
07FFFFFFFFFFFF80
0FFFFFFFFFFFFF80
0FFFFFFFFFFFFFC0
1FFFFFFFFFFFFFC0
1FFFFFFFFFFFFFE0
3FFFFFFFFFFFFFE0
3FFFFFFFFFFFFFF0
7FFFFFFFFFFFFFF0
FFFFFFFFFFFFFFF8
ENDCHAR
STARTCHAR 0041
ENCODING 65
SWIDTH 992 0
DWIDTH 62 0
BBX 60 58 1 -9
BITMAP
8000040000000000
C000060000000000
E000078000000000
F00007C000000000
FC0007E000000000
FE0007F800000000
FF0007FC00000000
FFC007FE00000000
FFE007FF80000000
FFF007FFC0000000
FFFC07FFE0000000
FFFE07FFF8000000
FFFF07FFFC000000
FFFFC7FFFE000000
FFFFE3FFFF800000
FFFFF1FFFFC00000
FFFFFC7FFFE00000
FFFFFE3FFFF80000
FFFFFF1FFFFC0000
FFFFFFC7FFFE0000
FFFFFFE3FFFF8000
FFFFFFF1FFFFC000
FFFFFFFC7FFFE000
FFFFFFFE3FFFF800
FFFFFFFF1FFFFC00
FFFFFFFFC7FFFE00
FFFFFFFFE3FFFF80
FFFFFFFFF1FFFFC0
FFFFFFFFFC7FFFF0
FFFFFFFFF8FFFFE0
FFFFFFFFF1FFFFC0
FFFFFFFFE3FFFF00
FFFFFFFF8FFFFE00
FFFFFFFF1FFFFC00
FFFFFFFE3FFFF000
FFFFFFF8FFFFE000
FFFFFFF1FFFFC000
FFFFFFE3FFFF0000
FFFFFF8FFFFE0000
FFFFFF1FFFFC0000
FFFFFE3FFFF00000
FFFFF8FFFFE00000
FFFFF1FFFFC00000
FFFFE3FFFF800000
FFFFC7FFFE000000
FFFF07FFFC000000
FFFE07FFF8000000
FFFC07FFE0000000
FFF007FFC0000000
FFE007FF80000000
FFC007FE00000000
FF0007FC00000000
FE0007F800000000
FC0007E000000000
F00007C000000000
E000078000000000
C000060000000000
8000040000000000
ENDCHAR
STARTCHAR 0042
ENCODING 66
SWIDTH 992 0
DWIDTH 62 0
BBX 53 64 4 -12
BITMAP
C000000000FFF8
E000000000FFF8
F800000000FFF8
FE00000000FFF8
FF00000000FFF8
FFC0000000FFF8
FFE0000000FFF8
FFF8000000FFF8
FFFE000000FFF8
FFFF000000FFF8
FFFFC00000FFF8
FFFFF00000FFF8
FFFFF80000FFF8
FFFFFE0000FFF8
FFFFFF8000FFF8
FFFFFFC000FFF8
FFFFFFF000FFF8
FFFFFFF800FFF8
FFFFFFFE00FFF8
FFFFFFFF80FFF8
FFFFFFFFC0FFF8
FFFFFFFFF0FFF8
FFFFFFFFFCFFF8
FFFFFFFFFEFFF8
FFFFFFFFFFFFF8
FFFFFFFFFFFFF8
FFFFFFFFFFFFF8
FFFFFFFFFFFFF8
FFFFFFFFFFFFF8
FFFFFFFFFFFFF8
FFFFFFFFFFFFF8
FFFFFFFFFFFFF8
FFFFFFFFFFFFF8
FFFFFFFFFFFFF8
FFFFFFFFFFFFF8
FFFFFFFFFFFFF8
FFFFFFFFFFFFF8
FFFFFFFFFFFFF8
FFFFFFFFFFFFF8
FFFFFFFFFFFFF8
FFFFFFFFFEFFF8
FFFFFFFFFCFFF8
FFFFFFFFF0FFF8
FFFFFFFFC0FFF8
FFFFFFFF80FFF8
FFFFFFFE00FFF8
FFFFFFF800FFF8
FFFFFFF000FFF8
FFFFFFC000FFF8
FFFFFF8000FFF8
FFFFFE0000FFF8
FFFFF80000FFF8
FFFFF00000FFF8
FFFFC00000FFF8
FFFF000000FFF8
FFFE000000FFF8
FFF8000000FFF8
FFE0000000FFF8
FFC0000000FFF8
FF00000000FFF8
FC00000000FFF8
F800000000FFF8
E000000000FFF8
C000000000FFF8
ENDCHAR
STARTCHAR 0043
ENCODING 67
SWIDTH 992 0
DWIDTH 62 0
BBX 46 64 8 -12
BITMAP
FFFFE03FFFFC
FFFFE03FFFFC
FFFFE03FFFFC
FFFFE03FFFFC
FFFFE03FFFFC
FFFFE03FFFFC
FFFFE03FFFFC
FFFFE03FFFFC
FFFFE03FFFFC
FFFFE03FFFFC
FFFFE03FFFFC
FFFFE03FFFFC
FFFFE03FFFFC
FFFFE03FFFFC
FFFFE03FFFFC
FFFFE03FFFFC
FFFFE03FFFFC
FFFFE03FFFFC
FFFFE03FFFFC
FFFFE03FFFFC
FFFFE03FFFFC
FFFFE03FFFFC
FFFFE03FFFFC
FFFFE03FFFFC
FFFFE03FFFFC
FFFFE03FFFFC
FFFFE03FFFFC
FFFFE03FFFFC
FFFFE03FFFFC
FFFFE03FFFFC
FFFFE03FFFFC
FFFFE03FFFFC
FFFFE03FFFFC
FFFFE03FFFFC
FFFFE03FFFFC
FFFFE03FFFFC
FFFFE03FFFFC
FFFFE03FFFFC
FFFFE03FFFFC
FFFFE03FFFFC
FFFFE03FFFFC
FFFFE03FFFFC
FFFFE03FFFFC
FFFFE03FFFFC
FFFFE03FFFFC
FFFFE03FFFFC
FFFFE03FFFFC
FFFFE03FFFFC
FFFFE03FFFFC
FFFFE03FFFFC
FFFFE03FFFFC
FFFFE03FFFFC
FFFFE03FFFFC
FFFFE03FFFFC
FFFFE03FFFFC
FFFFE03FFFFC
FFFFE03FFFFC
FFFFE03FFFFC
FFFFE03FFFFC
FFFFE03FFFFC
FFFFE03FFFFC
FFFFE03FFFFC
FFFFE03FFFFC
FFFFE03FFFFC
ENDCHAR
STARTCHAR 0044
ENCODING 68
SWIDTH 992 0
DWIDTH 62 0
BBX 53 64 4 -12
BITMAP
80000000000000
E0000000000000
F8000000000000
FC000000000000
FF000000000000
FFC00000000000
FFE00000000000
FFF80000000000
FFFC0000000000
FFFF0000000000
FFFFC000000000
FFFFE000000000
FFFFF800000000
FFFFFE00000000
FFFFFF00000000
FFFFFFC0000000
FFFFFFF0000000
FFFFFFF8000000
FFFFFFFE000000
FFFFFFFF800000
FFFFFFFFC00000
FFFFFFFFF00000
FFFFFFFFF80000
FFFFFFFFFE0000
FFFFFFFFFF8000
FFFFFFFFFFC000
FFFFFFFFFFF000
FFFFFFFFFFFC00
FFFFFFFFFFFE00
FFFFFFFFFFFF80
FFFFFFFFFFFFE0
FFFFFFFFFFFFF0
FFFFFFFFFFFFF8
FFFFFFFFFFFFE0
FFFFFFFFFFFF80
FFFFFFFFFFFE00
FFFFFFFFFFFC00
FFFFFFFFFFF000
FFFFFFFFFFE000
FFFFFFFFFF8000
FFFFFFFFFE0000
FFFFFFFFFC0000
FFFFFFFFF00000
FFFFFFFFC00000
FFFFFFFF800000
FFFFFFFE000000
FFFFFFF8000000
FFFFFFF0000000
FFFFFFC0000000
FFFFFF80000000
FFFFFE00000000
FFFFF800000000
FFFFF000000000
FFFFC000000000
FFFF0000000000
FFFE0000000000
FFF80000000000
FFE00000000000
FFC00000000000
FF000000000000
FE000000000000
F8000000000000
E0000000000000
C0000000000000
ENDCHAR
STARTCHAR 0045
ENCODING 69
SWIDTH 992 0
DWIDTH 62 0
BBX 60 60 1 -10
BITMAP
000001FFF0000000
00000FFFFF000000
00007FFFFFC00000
0001FFFFFFF00000
0003FFFFFFFC0000
000FFFFFFFFE0000
001FFFFFFFFF8000
003FFFFFFFFFC000
007FFFFFFFFFE000
00FFFFFFFFFFF000
01FFFFFFFFFFF800
03FFFFFFFFFFFC00
07FFFFFFFFFFFC00
0FFFFFFFFFFFFE00
0FFFFFFFFFFFFF00
1FFFFFFFFFFFFF00
1FFFFFFFFFFFFF80
3FFFFF803FFFFF80
3FFFFE0007FFFFC0
7FFFFC0003FFFFC0
7FFFF00001FFFFC0
7FFFE00000FFFFE0
FFFFE000007FFFE0
FFFFC000007FFFE0
FFFFC000003FFFE0
FFFF8000003FFFF0
FFFF8000001FFFF0
FFFF8000001FFFF0
FFFF8000001FFFF0
FFFF0000001FFFF0
FFFF0000001FFFF0
FFFF8000001FFFF0
FFFF8000001FFFF0
FFFF8000001FFFF0
FFFF8000003FFFF0
FFFFC000003FFFE0
FFFFC000007FFFE0
FFFFE000007FFFE0
7FFFE00000FFFFE0
7FFFF00001FFFFC0
7FFFFC0003FFFFC0
3FFFFE0007FFFFC0
3FFFFF803FFFFF80
1FFFFFFFFFFFFF80
1FFFFFFFFFFFFF00
0FFFFFFFFFFFFF00
0FFFFFFFFFFFFE00
07FFFFFFFFFFFC00
03FFFFFFFFFFFC00
01FFFFFFFFFFF800
00FFFFFFFFFFF000
007FFFFFFFFFE000
003FFFFFFFFFC000
001FFFFFFFFF8000
000FFFFFFFFE0000
0003FFFFFFFC0000
0001FFFFFFF00000
00007FFFFFC00000
00000FFFFF000000
000000FFF0000000
ENDCHAR
STARTCHAR 0046
ENCODING 70
SWIDTH 992 0
DWIDTH 62 0
BBX 60 60 1 -10
BITMAP
FFFFFFFFFFFFFFF0
FFFFFFFFFFFFFFF0
FFFFFFFFFFFFFFF0
FFFFFFFFFFFFFFF0
FFFFFFFFFFFFFFF0
FFFFFFFFFFFFFFF0
FFFFFFFFFFFFFFF0
FFFFFFFFFFFFFFF0
FFFFFFFFFFFFFFF0
FFFFFFFFFFFFFFF0
FFFFFFFFFFFFFFF0
FFFFFFFFFFFFFFF0
FFFFFFFFFFFFFFF0
FFFFFFFFFFFFFFF0
FFFFFFFFFFFFFFF0
FFFFFFFFFFFFFFF0
FFFFFFFFFFFFFFF0
FFFFFFFFFFFFFFF0
FFFFFFFFFFFFFFF0
FFFFFFFFFFFFFFF0
FFFFFFFFFFFFFFF0
FFFFFFFFFFFFFFF0
FFFFFFFFFFFFFFF0
FFFFFFFFFFFFFFF0
FFFFFFFFFFFFFFF0
FFFFFFFFFFFFFFF0
FFFFFFFFFFFFFFF0
FFFFFFFFFFFFFFF0
FFFFFFFFFFFFFFF0
FFFFFFFFFFFFFFF0
FFFFFFFFFFFFFFF0
FFFFFFFFFFFFFFF0
FFFFFFFFFFFFFFF0
FFFFFFFFFFFFFFF0
FFFFFFFFFFFFFFF0
FFFFFFFFFFFFFFF0
FFFFFFFFFFFFFFF0
FFFFFFFFFFFFFFF0
FFFFFFFFFFFFFFF0
FFFFFFFFFFFFFFF0
FFFFFFFFFFFFFFF0
FFFFFFFFFFFFFFF0
FFFFFFFFFFFFFFF0
FFFFFFFFFFFFFFF0
FFFFFFFFFFFFFFF0
FFFFFFFFFFFFFFF0
FFFFFFFFFFFFFFF0
FFFFFFFFFFFFFFF0
FFFFFFFFFFFFFFF0
FFFFFFFFFFFFFFF0
FFFFFFFFFFFFFFF0
FFFFFFFFFFFFFFF0
FFFFFFFFFFFFFFF0
FFFFFFFFFFFFFFF0
FFFFFFFFFFFFFFF0
FFFFFFFFFFFFFFF0
FFFFFFFFFFFFFFF0
FFFFFFFFFFFFFFF0
FFFFFFFFFFFFFFF0
FFFFFFFFFFFFFFF0
ENDCHAR
STARTCHAR 0047
ENCODING 71
SWIDTH 992 0
DWIDTH 62 0
BBX 53 64 4 -12
BITMAP
FFFC0000000008
FFFC0000000038
FFFC0000000078
FFFC00000001F8
FFFC00000007F8
FFFC0000000FF8
FFFC0000003FF8
FFFC0000007FF8
FFFC000001FFF8
FFFC000007FFF8
FFFC00000FFFF8
FFFC00003FFFF8
FFFC0000FFFFF8
FFFC0001FFFFF8
FFFC0007FFFFF8
FFFC001FFFFFF8
FFFC003FFFFFF8
FFFC00FFFFFFF8
FFFC01FFFFFFF8
FFFC07FFFFFFF8
FFFC1FFFFFFFF8
FFFC3FFFFFFFF8
FFFCFFFFFFFFF8
FFFFFFFFFFFFF8
FFFFFFFFFFFFF8
FFFFFFFFFFFFF8
FFFFFFFFFFFFF8
FFFFFFFFFFFFF8
FFFFFFFFFFFFF8
FFFFFFFFFFFFF8
FFFFFFFFFFFFF8
FFFFFFFFFFFFF8
FFFFFFFFFFFFF8
FFFFFFFFFFFFF8
FFFFFFFFFFFFF8
FFFFFFFFFFFFF8
FFFFFFFFFFFFF8
FFFFFFFFFFFFF8
FFFFFFFFFFFFF8
FFFFFFFFFFFFF8
FFFFFFFFFFFFF8
FFFCFFFFFFFFF8
FFFC7FFFFFFFF8
FFFC1FFFFFFFF8
FFFC07FFFFFFF8
FFFC03FFFFFFF8
FFFC00FFFFFFF8
FFFC003FFFFFF8
FFFC001FFFFFF8
FFFC0007FFFFF8
FFFC0001FFFFF8
FFFC0000FFFFF8
FFFC00003FFFF8
FFFC00001FFFF8
FFFC000007FFF8
FFFC000001FFF8
FFFC000000FFF8
FFFC0000003FF8
FFFC0000000FF8
FFFC00000007F8
FFFC00000001F8
FFFC0000000078
FFFC0000000038
FFFC0000000008
ENDCHAR
STARTCHAR 0048
ENCODING 72
SWIDTH 992 0
DWIDTH 62 0
BBX 60 58 1 -9
BITMAP
0000000004000010
000000000C000030
000000001C0000F0
000000007C0001F0
00000000FC0003F0
00000001FC000FF0
00000007FC001FF0
0000000FFC003FF0
0000001FFC00FFF0
0000007FFC01FFF0
000000FFFC03FFF0
000001FFFC0FFFF0
000007FFFC1FFFF0
00000FFFFC3FFFF0
00001FFFF8FFFFF0
00007FFFF1FFFFF0
0000FFFFE3FFFFF0
0001FFFF8FFFFFF0
0007FFFF1FFFFFF0
000FFFFE3FFFFFF0
001FFFF8FFFFFFF0
007FFFF1FFFFFFF0
00FFFFE3FFFFFFF0
01FFFFCFFFFFFFF0
07FFFF1FFFFFFFF0
0FFFFE3FFFFFFFF0
1FFFFCFFFFFFFFF0
7FFFF1FFFFFFFFF0
FFFFE7FFFFFFFFF0
FFFFE3FFFFFFFFF0
3FFFF1FFFFFFFFF0
1FFFFC7FFFFFFFF0
0FFFFE3FFFFFFFF0
03FFFF1FFFFFFFF0
01FFFFC7FFFFFFF0
00FFFFE3FFFFFFF0
003FFFF1FFFFFFF0
001FFFFC7FFFFFF0
000FFFFE3FFFFFF0
0003FFFF1FFFFFF0
0001FFFFC7FFFFF0
0000FFFFE3FFFFF0
00003FFFF1FFFFF0
00001FFFFC7FFFF0
00000FFFFC3FFFF0
000003FFFC1FFFF0
000001FFFC07FFF0
000000FFFC03FFF0
0000003FFC01FFF0
0000001FFC007FF0
0000000FFC003FF0
00000003FC001FF0
00000001FC000FF0
00000000FC0003F0
000000007C0001F0
000000001C000070
000000000C000030
0000000004000010
ENDCHAR
STARTCHAR 0049
ENCODING 73
SWIDTH 992 0
DWIDTH 62 0
BBX 60 60 1 -10
BITMAP
FC10000000000000
FC18000000000000
FC1E000000000000
FC1F800000000000
FC1FC00000000000
FC1FE00000000000
FC1FE00000000000
FC1FE00000000000
FC1FE08000000000
FC1FE0C000000000
FC1FE0F000000000
FC1FE0FC00000000
FC1FE0FE00000000
FC1FE0FF80000000
FC1FE0FFE0000000
FC1FE0FFF0000000
FC1FE0FFFC000000
FC1FE0FFFF000000
FC1FE0FFFF800000
FC1FE0FFFFE00000
FC1FE0FFFFF00000
FC1FE0FFFFFC0000
FC1FE0FFFFFF0000
FC1FE0FFFFFF8000
FC1FE0FFFFFFE000
FC1FE0FFFFFFF800
FC1FE0FFFFFFFC00
FC1FE0FFFFFFFF00
FC1FE0FFFFFFFFC0
FC1FE0FFFFFFFFF0
FC1FE0FFFFFFFFE0
FC1FE0FFFFFFFF80
FC1FE0FFFFFFFF00
FC1FE0FFFFFFFC00
FC1FE0FFFFFFF800
FC1FE0FFFFFFE000
FC1FE0FFFFFF8000
FC1FE0FFFFFF0000
FC1FE0FFFFFC0000
FC1FE0FFFFF00000
FC1FE0FFFFE00000
FC1FE0FFFF800000
FC1FE0FFFE000000
FC1FE0FFFC000000
FC1FE0FFF0000000
FC1FE0FFE0000000
FC1FE0FF80000000
FC1FE0FE00000000
FC1FE0FC00000000
FC1FE0F000000000
FC1FE0C000000000
FC1FE08000000000
FC1FE00000000000
FC1FE00000000000
FC1FE00000000000
FC1FC00000000000
FC1F800000000000
FC1E000000000000
FC18000000000000
FC10000000000000
ENDCHAR
STARTCHAR 004A
ENCODING 74
SWIDTH 992 0
DWIDTH 62 0
BBX 60 60 1 -10
BITMAP
0000000400000000
0000000600000000
0000000E00000000
0000001F00000000
0000001F80000000
0000003FC0000000
0000007FC0000000
000000FFE0000000
000000FFF0000000
000001FFF8000000
000003FFF8000000
000007FFFC000000
000007FFFE000000
00000FFFFF000000
00001FFFFF000000
00003FFFFF800000
00003FFFFFC00000
00007FFFFFE00000
0000FFFFFFE00000
0001FFFFFFF00000
0001FFFFFFF80000
0003FFFFFFFC0000
0007FFFFFFFC0000
000FFFFFFFFE0000
000FFFFFFFFF0000
001FFFFFFFFF8000
003FFFFFFFFFC000
007FFFFFFFFFC000
00FFFFFFFFFFE000
00FFFFFFFFFFF000
01FFFFFFFFFFF800
03FFFFFFFFFFF800
07FFFFFFFFFFFC00
07FFFFFFFFFFFE00
0FFFFFFFFFFFFF00
1FFFFFFFFFFFFF00
3FFFFFFFFFFFFF80
3FFFFFFFFFFFFFC0
7FFFFFFFFFFFFFE0
FFFFFFFFFFFFFFE0
0000000000000010
0000000000000000
0000000000000000
0000000000000000
0000000000000000
FFFFFFFFFFFFFFF0
FFFFFFFFFFFFFFF0
FFFFFFFFFFFFFFF0
FFFFFFFFFFFFFFF0
FFFFFFFFFFFFFFF0
FFFFFFFFFFFFFFF0
FFFFFFFFFFFFFFF0
FFFFFFFFFFFFFFF0
FFFFFFFFFFFFFFF0
FFFFFFFFFFFFFFF0
FFFFFFFFFFFFFFF0
FFFFFFFFFFFFFFF0
FFFFFFFFFFFFFFF0
FFFFFFFFFFFFFFF0
FFFFFFFFFFFFFFF0
ENDCHAR
STARTCHAR 004B
ENCODING 75
SWIDTH 992 0
DWIDTH 62 0
BBX 60 62 1 -11
BITMAP
0000000000003000
000000000000F800
000000000001F800
000000000003F800
000000000007F800
000000000007F800
00000000000FF800
00000000000FF800
00000000001FF000
00000000003FF000
00000000003FE000
00000000007FC000
00000000007FC000
0000000000FF8000
0000000000FF8000
0000000001FF0000
0000000003FF0000
0000000003FE0000
0000000007FC0000
0FFFFFFFFFFC0000
1FFFFFFFFFF80000
1FFFFFFFFFF80000
3FFFFFFFFFF00000
3FFFFFFFFFF80000
7FFFFFFFFFF80000
FFFFFFFFFFFC0000
FFFFFFFFFFFC0000
07FFFFFFFFFE0000
003FFFFFFFFF0000
0001FFFFFFFF0000
000007FFFFFF8000
0000003FFFFF8000
00000007FFFFC000
0000000FFFFFC000
0000001FFFFFE000
0000001FFFFFF000
0000003FF7FFF000
0000003FE3FFF800
0000007FC1FFF800
0000007FC1FFFC00
000000FF80FFFC00
000000FF007FFE00
000001FF003FFE00
000001FE001FFF00
000003FC000FFF80
000003FC0007FF80
0003FFF80003FFC0
0007FFF00003FFC0
000FFFF00001FFE0
001FFFF00000FFE0
001FFFF000007FF0
003FFFF000003FE0
0001FFF800001FE0
00000FF800000FC0
000003FC00000F80
000003FC00000780
000001FC00000300
000000FC00000100
0000007800000000
0000003800000000
0000003000000000
0000001000000000
ENDCHAR
STARTCHAR 004C
ENCODING 76
SWIDTH 992 0
DWIDTH 62 0
BBX 52 64 5 -12
BITMAP
00000000004000
0000000000C000
0000000000C000
0000000001E000
0000000001E000
0000000001E000
0000000003F000
0001FFFF83F000
0007FFFFFFF800
001FFFFFFFF800
007FFFFFFFF800
00FFFFFFFFFC00
01FFFFFFFFFC00
03FFFFFFFFFE00
07FFFFFFFFFE00
0FFC00FFFFFF00
1FC0001FFFFF00
1F000007FFFF00
38000001FFFF80
60000003FFFF80
80000007FFFFC0
00000007FFFFC0
0000000FFFFFC0
0000001FFFFFE0
0000001FFFFFE0
0000003FFFFFF0
0000003FFFE000
0000007FE00000
000000F0000000
00000000000000
00000000000000
00000000000000
00000000000000
00000000000000
00000000000000
00000060000000
00007FE0000000
007FFFC0000000
7FFFFF80000000
FFFFFF80000000
7FFFFF00000000
7FFFFE00000000
7FFFFE00000000
3FFFFC00000020
3FFFF800000040
1FFFF8000003C0
1FFFFC00000F80
1FFFFF00007F00
0FFFFFE003FE00
0FFFFFFFFFFC00
07FFFFFFFFFC00
07FFFFFFFFF800
03FFFFFFFFE000
03FFFFFFFFC000
03FFFFFFFF8000
01FFFFFFFE0000
01FC3FFFF80000
00F8001C000000
00F80000000000
00F00000000000
00700000000000
00700000000000
00200000000000
00200000000000
ENDCHAR
STARTCHAR 004D
ENCODING 77
SWIDTH 992 0
DWIDTH 62 0
BBX 61 52 0 -6
BITMAP
000003FE00000000
00003FFFE0000000
0001FFFFF8000000
0007FFFFFE000000
000FFFFFFF800000
003FFFFFFFC00000
007FFFFFFFE00000
00FFFFFFFFF00000
01FFF801FFF80000
03FFE0003FFC0000
03FF80000FFE0000
07FE000007FF0000
0FFC000003FF0000
0FF8000001FF8000
1FF0000000FF8000
1FE00000007FC000
3FE00000003FC000
3FC00000003FE000
3FC00000001FE000
7F800000001FE000
7F800000201FE000
7F8000001FFFFFF8
7F0000000FFFFFF0
7F00000007FFFFE0
FF00000003FFFFC0
FF00000003FFFF80
FF00000001FFFF00
FF00000000FFFE00
7F000000007FFE00
7F800000003FFC00
7F800000001FF800
7F800000001FF000
7F800000000FE000
3FC000000007C000
3FC0000000038000
3FE0000000018000
1FF0000000010000
1FF0000000000000
0FF8000000000000
0FFC000000000000
07FF000004000000
03FF80001C000000
01FFE0007C000000
01FFFC03FE000000
00FFFFFFFE000000
003FFFFFFF000000
001FFFFFFF000000
000FFFFFFF000000
0003FFFFFE000000
0000FFFFF8000000
00001FFFC0000000
0000017000000000
ENDCHAR
STARTCHAR 004E
ENCODING 78
SWIDTH 992 0
DWIDTH 62 0
BBX 60 44 1 -2
BITMAP
0000000000001E00
0000000000007F00
000000000000FF80
000000000001FFC0
000000000003FFE0
000000000007FFE0
00000000000FFFF0
00000000001FFFF0
00000000003FFFF0
00000000007FFFE0
0000000000FFFFC0
0000000001FFFF80
0000000003FFFF00
0F80000007FFFE00
1FC000000FFFFC00
3FE000001FFFF800
7FF000003FFFF000
FFF800007FFFE000
FFFC0000FFFFC000
FFFE0001FFFF8000
FFFF0003FFFF0000
FFFF8007FFFE0000
7FFFC00FFFFC0000
3FFFE01FFFF80000
1FFFF03FFFF00000
0FFFF87FFFE00000
07FFFCFFFFC00000
03FFFFFFFF800000
01FFFFFFFF000000
00FFFFFFFE000000
007FFFFFFC000000
003FFFFFF8000000
001FFFFFF0000000
000FFFFFE0000000
0007FFFFC0000000
0003FFFF80000000
0001FFFF00000000
0000FFFE00000000
00007FFC00000000
00003FF800000000
00001FF000000000
00000FE000000000
000007C000000000
0000030000000000
ENDCHAR
STARTCHAR 004F
ENCODING 79
SWIDTH 992 0
DWIDTH 62 0
BBX 60 60 1 -10
BITMAP
1FFC000000000000
7FFFE00000000000
FFFFFC0000000000
FFFFFF8000000000
FFFFFFE000000000
FFFFFFF800000000
FFFFFFFE00000000
FFFFFFFF80000000
FFFFFFFFE0000000
7FFFFFFFF0000000
1FFFFFFFFC000000
001FFFFFFE000000
0000FFFFFF000000
00001FFFFF800000
000003FFFFC00000
000000FFFFF00000
0000003FFFF80000
0000000FFFF80000
3FFC0007FFFC0000
7FFF8001FFFE0000
FFFFF000FFFF0000
FFFFFC007FFF8000
FFFFFF001FFFC000
FFFFFF800FFFC000
FFFFFFE007FFE000
FFFFFFF007FFF000
7FFFFFF803FFF000
3FFFFFFE01FFF800
1FFFFFFF00FFF800
001FFFFF007FFC00
0003FFFF807FFC00
00007FFFC03FFE00
00003FFFE01FFE00
00000FFFF01FFF00
000007FFF00FFF00
000001FFF80FFF00
000000FFF807FF80
0000007FFC07FF80
0000007FFE03FF80
0000003FFE03FFC0
03F8001FFE03FFC0
0FFE001FFF01FFC0
1FFF800FFF01FFE0
3FFFC00FFF81FFE0
7FFFC007FF81FFE0
7FFFE007FF80FFE0
FFFFE003FF80FFE0
FFFFF003FFC0FFE0
FFFFF003FFC0FFF0
FFFFF003FFC0FFF0
FFFFF001FFC0FFF0
FFFFF001FFC0FFF0
FFFFF001FFC07FF0
FFFFE001FFC07FF0
7FFFE001FFC07FF0
7FFFC001FFC07FF0
3FFFC001FFC07FF0
1FFF8000FF807FE0
0FFE00007F803FC0
03F800003E000F80
ENDCHAR
STARTCHAR 0050
ENCODING 80
SWIDTH 992 0
DWIDTH 62 0
BBX 57 64 2 -12
BITMAP
000000FFC0000000
00000FFFF8000000
00003FFFFE000000
0000FFFFFF800000
0001FFFFFFE00000
0003FFFFFFF00000
000FFFFFFFF80000
000FFFFFFFFC0000
001FFFFFFFFE0000
003FFFC1FFFF0000
007FFE003FFF0000
007FF8000FFF8000
00FFF00007FF8000
00FFE00001FFC000
01FFC00001FFC000
01FF800000FFE000
03FF8000007FE000
03FF0000007FE000
03FF0000003FF000
03FE0000003FF000
03FE0000003FF000
07FE0000003FF000
07FE0000001FF000
07FE0000001FF000
07FE0000001FF000
07FE0000001FF000
07FE0000001FF000
07FE0000001FF000
07FE0000001FF000
FFFFFFFFFFFFFF80
FFFFFFFFFFFFFF80
FFFFFFFFFFFFFF80
FFFFFFFFFFFFFF80
FFFFFFFFFFFFFF80
FFFFFFFFFFFFFF80
FFFFFFFFFFFFFF80
FFFFFFFFFFFFFF80
FFFFFFC1FFFFFF80
FFFFFF80FFFFFF80
FFFFFF807FFFFF80
FFFFFF007FFFFF80
FFFFFF007FFFFF80
FFFFFF007FFFFF80
FFFFFF80FFFFFF80
FFFFFFC1FFFFFF80
FFFFFFC1FFFFFF80
FFFFFFC1FFFFFF80
FFFFFFC1FFFFFF80
FFFFFFC1FFFFFF80
FFFFFFC1FFFFFF80
FFFFFFC1FFFFFF80
FFFFFFC0FFFFFF80
FFFFFFC0FFFFFF80
FFFFFFC0FFFFFF80
FFFFFFC0FFFFFF80
FFFFFF80FFFFFF80
FFFFFFFFFFFFFF80
FFFFFFFFFFFFFF80
FFFFFFFFFFFFFF80
FFFFFFFFFFFFFF80
FFFFFFFFFFFFFF80
FFFFFFFFFFFFFF80
FFFFFFFFFFFFFF80
FFFFFFFFFFFFFF80
ENDCHAR
STARTCHAR 0051
ENCODING 81
SWIDTH 992 0
DWIDTH 62 0
BBX 61 60 0 -10
BITMAP
000FFFFFFFFF8000
000FFFFFFFFF8000
000FFFFFFFFF8000
000FFFFFFFFF8000
000FFFFFFFFF8000
000FFFFFFFFF8000
000FFFFFFFFF8000
000FFFFFFFFF8000
000FFFFFFFFF8000
000FFFFFFFFF8000
000FFFFFFFFF8000
000FFFFFFFFF8000
000FFFFFFFFF8000
000FFFFFFFFF8000
000FFFFFFFFF8000
000FFFFFFFFF8000
000FFFFFFFFF8000
000FFFFFFFFF8000
000FFFFFFFFF8000
000FFFFFFFFF8000
000FFFFFFFFF8000
000FFFFFFFFF8000
0000000380000000
0000000380000000
0000000380000000
0000000380000000
0000000380000000
0000000380000000
0000000380000000
0000000380000000
0000000380000000
0007FFFFFFFFC000
0007FFFFFFFFC000
0007FFFFFFFFC000
000600000000C000
000600000000C000
000600000000C000
000600000000C000
000E00000000C000
FFFFFFC01FFFFFF8
FFFFFFC01FFFFFF8
FFFFFFC01FFFFFF8
FFFFFFC01FFFFFF8
FFFFFFC01FFFFFF8
FFFFFFC01FFFFFF8
FFFFFFC01FFFFFF8
FFFFFFC01FFFFFF8
FFFFFFC01FFFFFF8
FFFFFFC01FFFFFF8
FFFFFFC01FFFFFF8
FFFFFFC01FFFFFF8
FFFFFFC01FFFFFF8
FFFFFFC01FFFFFF8
FFFFFFC01FFFFFF8
FFFFFFC01FFFFFF8
FFFFFFC01FFFFFF8
FFFFFFC01FFFFFF8
FFFFFFC01FFFFFF8
FFFFFFC01FFFFFF8
FFFFFFC01FFFFFF8
ENDCHAR
STARTCHAR 0052
ENCODING 82
SWIDTH 992 0
DWIDTH 62 0
BBX 60 36 1 2
BITMAP
0000038000000000
000003E000000000
000003F000000000
000001F800000000
000001FC00000000
000000FF00000000
0007FFFF81FE0000
007FFFFFC1FFE000
01FFFFFFF1FFF800
07FFFFFFF9FFFC00
0FFFFFFFF9FFFE00
1FFFFFFFF1FFFF00
3FFFFFFFE1FFFF80
3FFFFFFF81FFFFC0
7FF000FF0000FFC0
7FC001FE00003FE0
FF8001FC00001FE0
FF0003F000001FF0
FF0003E000000FF0
FE0003C000000FF0
FE00000000000FF0
FE00000000000FF0
FE00000000000FF0
FF00000000000FF0
FF00000000000FF0
FF80000000001FE0
7FC0000000003FE0
7FE0000000007FE0
7FFFFFFFFFFFFFC0
3FFFFFFFFFFFFF80
1FFFFFFFFFFFFF80
0FFFFFFFFFFFFF00
07FFFFFFFFFFFE00
03FFFFFFFFFFF800
00FFFFFFFFFFF000
001FFFFFFFFF8000
ENDCHAR
STARTCHAR 0053
ENCODING 83
SWIDTH 992 0
DWIDTH 62 0
BBX 61 50 0 -5
BITMAP
0000000001F00000
0000000003F80000
0000000007FC0000
000000000FFE0000
000000001FFF0000
000000003FFF8000
000000007FFFC000
00000000FFFFE000
00000001FFFFF000
7FFFFFC3FFFFF800
FFFFFFE7FFFFFC00
FFFFFFCFFFFFFE00
FFFFFF9FFFFFFF00
FFFFFF3FFFFFFF80
FFFFFE7FFFFFFFC0
FFFFFCFFFFFFFFE0
FFFFFDFFFFFFFFF0
FFFFF9FFF7FFFFF0
FFFFF9FFC7FE7FF8
FFF001FF07FE1FF0
FFC001FC07FE07F0
FF8000F007FE00E0
FF8FFE07F7FEFC08
FF9FFFFFF7FEFFF8
FF1FFFFFF7FEFFF8
FF3FFFFFF7FEFFF8
FF3FFFFFF7FEFFF0
FF3FFFFFF7FEFFF0
FE3FFFFFF7FEFFF0
FE7FFFFFF7FEFFE0
FE7FFFFFF7FEFFE0
FC7FFFFFF7FEFFE0
FCFFFFFFF7FEFFE0
FCFFFFFFF7FEFFC0
FCFFFFFFF7FEFFC0
F8FFFFFFF7FEFFC0
F9FFFFFFF7FEFF80
F9FFFFFFF7FEFF80
F1FFFFFFF7FCFF80
F3FFFFFFF3FCFF80
F3FFFFFFF801FF00
F3FFFFFFFC03FF00
E3FFFFFFFFFFFF00
E7FFFFFFFFFFFE00
E7FFFFFFFFFFFE00
47FFFFFFFFFFFE00
0FFFFFFFFFFFFE00
0FFFFFFFFFFFFC00
0FFFFFFFFFFFFC00
07FFFFFFFFFFF800
ENDCHAR
STARTCHAR 0054
ENCODING 84
SWIDTH 992 0
DWIDTH 62 0
BBX 61 60 0 -10
BITMAP
000000FFF8000000
00000FFFFF800000
00003FFFFFE00000
0000FFFFFFF80000
0003FFFFFFFE0000
0007FFFFFFFF0000
000FFFFFFFFFC000
003FFFFFFFFFE000
007FFFFFFFFFF000
00FFFF800FFFF800
01FFFC0001FFFC00
01FFF000007FFE00
03FFE000001FFE00
07FFE000000FFF00
07FFF0000007FF80
0FFFF8000003FF80
0FFFFC000001FFC0
1FFBFE000000FFC0
1FF9FF000000FFE0
3FF0FF8000007FE0
3FF07FC000003FE0
3FE03FE000003FF0
7FE01FF000003FF0
7FC00FF800001FF0
7FC007FC00001FF0
7FC003FE00001FF8
7FC001FF00000FF8
7FC000FF80000FF8
FF80007FC0000FF8
FF80003FE0000FF8
FF80001FF0000FF8
FF80000FF8000FF8
7FC00007FC000FF8
7FC00003FE000FF8
7FC00001FF001FF0
7FC00000FF801FF0
7FC000007FC01FF0
7FE000003FE03FF0
3FE000001FF03FF0
3FF000000FF83FE0
3FF0000007FC7FE0
1FF8000003FEFFE0
1FFC000001FFFFC0
0FFC000000FFFFC0
0FFE0000007FFF80
07FF0000003FFF80
07FF8000001FFF00
03FFE000003FFE00
01FFF000007FFC00
00FFFC0001FFFC00
00FFFF800FFFF800
007FFFFFFFFFF000
003FFFFFFFFFE000
000FFFFFFFFFC000
0007FFFFFFFF0000
0003FFFFFFFE0000
0000FFFFFFF80000
00003FFFFFE00000
000007FFFF800000
000000FFF8000000
ENDCHAR
STARTCHAR 0055
ENCODING 85
SWIDTH 992 0
DWIDTH 62 0
BBX 61 54 0 -7
BITMAP
0000000300000000
0000000380000000
0000000780000000
0000000F80000000
0000001F80000000
0000003F80000000
0000007F80000000
000000FF80000000
000001FF80000000
000003FF80000000
000007FF80000000
00000FFF80000000
00001FFF80000000
00003FFF80000000
00007FFF80000000
00007FFF80000000
7FFFFFFF80000000
FFFFFFFF80000000
FFFFFFFF80000000
FFFFFFFF80000000
FFFFFFFF80000000
FFFFFFFF80000000
FFFFFFFF80000000
FFFFFFFF81FFFFF0
FFFFFFFF81FFFFF8
FFFFFFFF81FFFFF8
FFFFFFFF81FFFFF8
FFFFFFFF81FFFFF8
FFFFFFFF81FFFFF8
FFFFFFFF81FFFFF8
FFFFFFFF80000000
FFFFFFFF80000000
FFFFFFFF80000000
FFFFFFFF80000000
FFFFFFFF80000000
FFFFFFFF80000000
7FFFFFFF80000000
3FFFFFFF80000000
00007FFF80000000
00003FFF80000000
00001FFF80000000
00000FFF80000000
000007FF80000000
000007FF80000000
000003FF80000000
000001FF80000000
000000FF80000000
0000007F80000000
0000003F80000000
0000001F80000000
0000000F80000000
0000000780000000
0000000380000000
0000000100000000
ENDCHAR
STARTCHAR 0056
ENCODING 86
SWIDTH 992 0
DWIDTH 62 0
BBX 60 56 1 -8
BITMAP
0000000100000000
0000000380000000
00000007C0000000
0000000FC0000000
0000001FC0000000
0000003FC0000000
0000007FC0000000
000000FFC0000000
000001FFC0000000
000001FFC0000000
000003FFC0000000
000007FFC0000000
00000FFFC0000000
00001FFFC0000000
00003FFFC0000000
00007FFFC0000000
0000FFFFC0000000
FFFFFFFFC007F000
FFFFFFFFC007F000
FFFFFFFFC007F000
FFFFFFFFC007F000
FFFFFFFFC007F000
FFFFFFFFC007F000
FFFFFFFFC007F000
FFFFFFFFC3FFFFF0
FFFFFFFFC7FFFFF0
FFFFFFFFC7FFFFF0
FFFFFFFFC7FFFFF0
FFFFFFFFC7FFFFF0
FFFFFFFFC7FFFFF0
FFFFFFFFC7FFFFF0
FFFFFFFFC3FFFFF0
FFFFFFFFC007F000
FFFFFFFFC007F000
FFFFFFFFC007F000
FFFFFFFFC007F000
FFFFFFFFC007F000
FFFFFFFFC007F000
FFFFFFFFC007F000
0000FFFFC0000000
00007FFFC0000000
00003FFFC0000000
00001FFFC0000000
00000FFFC0000000
000007FFC0000000
000003FFC0000000
000001FFC0000000
000001FFC0000000
000000FFC0000000
0000007FC0000000
0000003FC0000000
0000001FC0000000
0000000FC0000000
00000007C0000000
0000000380000000
0000000180000000
ENDCHAR
STARTCHAR 0057
ENCODING 87
SWIDTH 992 0
DWIDTH 62 0
BBX 60 59 1 -9
BITMAP
003FC000007FE000
01FFF80003FFF800
07FFFE0007FFFE00
0FFFFF000FFFFF00
1FFFFF803FFFFF80
3FFFFFC07FFFFFC0
7FFFFFC07FFFFFC0
7FFFFFE0FFFFFFE0
FFFFFFF1FFFFFFE0
FFFFFFF3FFFFFFE0
FFFFFFFBFFFFFFF0
FFFFFFFFFFFFFFF0
FFFFFFFFFFFFFFF0
FFFFFFFFFFFFFFF0
FFFFFFFFFFFFFFF0
FFFFFFFFFFFFFFF0
FFFFFFFFFFFFFFF0
FFFFFFFFFFFFFFF0
7FFFFFFFFFFFFFE0
7FFFFFFFFFFFFFE0
3FFFFFFFFFFFFFE0
3FFFFFFFFFFFFFC0
1FFFFFFFFFFFFF80
1FFFFFFFFFFFFF80
0FFFFFFFFFFFFF00
07FFFFFFFFFFFE00
03FFFFFFFFFFFC00
01FFFFFFFFFFFC00
00FFFFFFFFFFF800
00FFFFFFFFFFF000
007FFFFFFFFFE000
003FFFFFFFFFC000
001FFFFFFFFF8000
0007FFFFFFFF0000
0003FFFFFFFE0000
0001FFFFFFFC0000
0000FFFFFFF80000
00007FFFFFF00000
00003FFFFFE00000
00001FFFFFC00000
00000FFFFF800000
000007FFFF000000
000003FFFE000000
000003FFFE000000
000001FFFC000000
000000FFF8000000
0000007FF0000000
0000003FE0000000
0000001FC0000000
0000001FC0000000
0000000F80000000
0000000F00000000
0000000700000000
0000000600000000
0000000600000000
0000000600000000
0000000200000000
0000000200000000
0000000200000000
ENDCHAR
STARTCHAR 0058
ENCODING 88
SWIDTH 992 0
DWIDTH 62 0
BBX 50 64 6 -12
BITMAP
001F0000000000
001F8000000000
001F8000000000
001F8000000000
001F8000000000
001F8000000000
001F8000000000
001F8000000000
001F8000000000
001F8000000000
001F8000000000
001F8000000000
001F8000000000
001F8000000000
001F8000000000
001F8000000000
001F8000000000
001F8000000000
001F83E0000000
001F83F0000000
001F87F0000000
001F87F03C0000
001F87F07E0000
001F87F0FE0700
001F87F0FE0F80
001F87F0FE1FC0
101F87F0FE1FC0
FC1F87F0FE1FC0
FC1FC7F0FE1FC0
FC1FFFFFFFFFC0
FC1FFFFFFFFFC0
FC1FFFFFFFFFC0
FC1FFFFFFFFFC0
FC1FFFFFFFFFC0
FC1FFFFFFFFFC0
FC1FFFFFFFFFC0
FC1FFFFFFFFFC0
FC1FFFFFFFFFC0
FC1FFFFFFFFFC0
FC1FFFFFFFFFC0
FE3FFFFFFFFFC0
FFFFFFFFFFFFC0
FFFFFFFFFFFFC0
FFFFFFFFFFFFC0
FFFFFFFFFFFFC0
FFFFFFFFFFFFC0
FFFFFFFFFFFFC0
7FFFFFFFFFFFC0
3FFFFFFFFFFFC0
3FFFFFFFFFFFC0
1FFFFFFFFFFFC0
0FFFFFFFFFFFC0
0FFFFFFFFFFFC0
07FFFFFFFFFFC0
03FFFFFFFFFFC0
03FFFFFFFFFFC0
01FFFFFFFFFFC0
01FFFFFFFFFFC0
00FFFFFFFFFFC0
007FFFFFFFFFC0
007FFFFFFFFFC0
003FFFFFFFFF80
001FFFFFFFFF00
000FFFFFFFFE00
ENDCHAR
STARTCHAR 0059
ENCODING 89
SWIDTH 992 0
DWIDTH 62 0
BBX 45 64 8 -12
BITMAP
00000F800000
00000FC00000
00000FC00000
00000FC00000
00000FC00000
00000FC00000
003E0FC3E000
003F0FC3F000
003F0FC7F000
003F0FC7F000
003F0FC7F000
003F0FC7F000
003F0FC7F000
003F0FC7F070
003F0FC7F0F8
003F0FC7F1F8
003F0FC7F1F8
003F0FC7F1F8
003F0FC7F1F8
003F0FC7F1F8
003F0FC7F1F8
003F0FC7F1F8
003F0FC7F1F8
003F0FC7F1F8
003F0FC7F1F8
003F0FC7F1F8
003F0FC7F1F8
003F0FC7F1F8
003F0FC7F1F8
003F0FC7F1F8
783F0FC7F1F8
FC3F0FC7F1F8
FC3FFFFFFFF8
FC3FFFFFFFF8
FC3FFFFFFFF8
FC3FFFFFFFF8
FC3FFFFFFFF8
FC3FFFFFFFF8
FC3FFFFFFFF8
FC3FFFFFFFF8
FC3FFFFFFFF8
FC3FFFFFFFF8
FC7FFFFFFFF8
FFFFFFFFFFF8
FFFFFFFFFFF8
FFFFFFFFFFF8
FFFFFFFFFFF8
FFFFFFFFFFF8
7FFFFFFFFFF8
7FFFFFFFFFF8
3FFFFFFFFFF8
1FFFFFFFFFF8
1FFFFFFFFFF8
0FFFFFFFFFF8
07FFFFFFFFF8
07FFFFFFFFF8
03FFFFFFFFF8
01FFFFFFFFF8
01FFFFFFFFF8
00FFFFFFFFF8
007FFFFFFFF8
007FFFFFFFF8
003FFFFFFFF0
001FFFFFFFE0
ENDCHAR
STARTCHAR 005A
ENCODING 90
SWIDTH 992 0
DWIDTH 62 0
BBX 61 62 0 -11
BITMAP
0000000000003800
0000000000007800
0000000020007C00
0000000070007E00
00000000F8003E00
00000001F8003E00
00000003F8001F00
00000007F8001F00
0000000FF8001F80
0000001FF8000F80
0000001FF81C0FC0
0000003FF83C0FC0
0000007FF83E07C0
000000FFF83E07E0
000001FFF81F07E0
000003FFF81F07E0
000007FFF81F03E0
00000FFFF81F83F0
00001FFFF81F83F0
00003FFFF80F83F0
7FFFFFFFF80F83F0
FFFFFFFFF80FC3F0
FFFFFFFFF80FC3F8
FFFFFFFFF80FC1F8
FFFFFFFFF80FC1F8
FFFFFFFFF80FC1F8
FFFFFFFFF80FC1F8
FFFFFFFFF807C1F8
FFFFFFFFF807C1F8
FFFFFFFFF807C1F8
FFFFFFFFF807C1F8
FFFFFFFFF807C1F8
FFFFFFFFF807C1F8
FFFFFFFFF807C1F8
FFFFFFFFF807C1F8
FFFFFFFFF80FC1F8
FFFFFFFFF80FC1F8
FFFFFFFFF80FC1F8
FFFFFFFFF80FC3F8
FFFFFFFFF80FC3F0
FFFFFFFFF80F83F0
FFFFFFFFF80F83F0
FFFFFFFFF80F83F0
7FFFFFFFF81F83F0
00003FFFF81F03E0
00001FFFF81F07E0
00000FFFF81F07E0
000007FFF83E07E0
000003FFF83E07C0
000001FFF83E0FC0
000000FFF83C0FC0
000000FFF83C0F80
0000007FF8101F80
0000003FF8001F80
0000001FF8001F00
0000000FF8003F00
00000007F8003E00
00000003F8003E00
00000001F8007C00
00000000F8007C00
0000000070003800
0000000020000000
ENDCHAR
STARTCHAR 005B
ENCODING 91
SWIDTH 976 0
DWIDTH 61 0
BBX 60 60 1 -10
BITMAP
8000000000000000
C000000000000000
F000000000000000
FC00000000000000
FF00000000000000
FFC0000000000000
FFF0000000000000
FFFC000000000000
FFFF800000000000
FFFFE00000000000
FFFFF80000000000
FFFFFE0000000000
FFFFFF8000000000
FFFFFFE000000000
FFFFFFF800000000
FFFFFFFE00000000
FFFFFFFF80000000
FFFFFFFFE0000000
FFFFFFFFF8000000
FFFFFFFFFE000000
FFFFFFFFFF800000
FFFFFFFFFFE00000
FFFFFFFFFFF80000
FFFFFFFFFFFE0000
FFFFFFFFFFFF8000
FFFFFFFFFFFFE000
FFFFFFFFFFFFF800
FFFFFFFFFFFFFE00
FFFFFFFFFFFFFF80
FFFFFFFFFFFFFFF0
FFFFFFFFFFFFFFE0
FFFFFFFFFFFFFF80
FFFFFFFFFFFFFE00
FFFFFFFFFFFFF800
FFFFFFFFFFFFE000
FFFFFFFFFFFF8000
FFFFFFFFFFFE0000
FFFFFFFFFFF80000
FFFFFFFFFFC00000
FFFFFFFFFF000000
FFFFFFFFFC000000
FFFFFFFFF0000000
FFFFFFFFC0000000
FFFFFFFF00000000
FFFFFFFC00000000
FFFFFFF000000000
FFFFFFC000000000
FFFFFF0000000000
FFFFFC0000000000
FFFFF00000000000
FFFFC00000000000
FFFF000000000000
FFFC000000000000
FFF0000000000000
FFC0000000000000
FF00000000000000
FC00000000000000
F000000000000000
C000000000000000
8000000000000000
ENDCHAR
STARTCHAR 005C
ENCODING 92
SWIDTH 976 0
DWIDTH 61 0
BBX 61 60 0 -10
BITMAP
FFFFFFFFFFFFFFF8
7FFFFFFFFFFFFFF0
3FFFFFFFFFFFFFF0
3FFFFFFFFFFFFFE0
1FFFFFFFFFFFFFE0
1FFFFFFFFFFFFFC0
0FFFFFFFFFFFFFC0
0FFFFFFFFFFFFF80
07FFFFFFFFFFFF80
07FFFFFFFFFFFF00
03FFFFFFFFFFFF00
03FFFFFFFFFFFE00
01FFFFFFFFFFFE00
01FFFFFFFFFFFC00
00FFFFFFFFFFFC00
00FFFFFFFFFFF800
007FFFFFFFFFF800
007FFFFFFFFFF000
003FFFFFFFFFF000
003FFFFFFFFFE000
001FFFFFFFFFE000
001FFFFFFFFFC000
000FFFFFFFFFC000
000FFFFFFFFF8000
0007FFFFFFFF8000
0007FFFFFFFF0000
0003FFFFFFFF0000
0003FFFFFFFE0000
0001FFFFFFFE0000
0001FFFFFFFC0000
0000FFFFFFFC0000
0000FFFFFFF80000
00007FFFFFF80000
00007FFFFFF00000
00003FFFFFF00000
00003FFFFFE00000
00001FFFFFE00000
00001FFFFFC00000
00000FFFFFC00000
00000FFFFF800000
000007FFFF800000
000007FFFF000000
000003FFFF000000
000003FFFE000000
000001FFFE000000
000001FFFC000000
000000FFFC000000
000000FFF8000000
0000007FF8000000
0000007FF0000000
0000003FF0000000
0000003FE0000000
0000001FE0000000
0000001FC0000000
0000000FC0000000
0000000F80000000
0000000780000000
0000000700000000
0000000300000000
0000000200000000
ENDCHAR
STARTCHAR 005D
ENCODING 93
SWIDTH 992 0
DWIDTH 62 0
BBX 60 60 1 -10
BITMAP
0000000000000010
0000000000000070
00000000000001F0
00000000000007F0
0000000000001FF0
0000000000007FF0
000000000001FFF0
000000000007FFF0
00000000001FFFF0
00000000007FFFF0
0000000001FFFFF0
0000000007FFFFF0
000000001FFFFFF0
000000007FFFFFF0
00000001FFFFFFF0
00000007FFFFFFF0
0000001FFFFFFFF0
0000007FFFFFFFF0
000001FFFFFFFFF0
000007FFFFFFFFF0
00001FFFFFFFFFF0
00007FFFFFFFFFF0
0001FFFFFFFFFFF0
0007FFFFFFFFFFF0
001FFFFFFFFFFFF0
007FFFFFFFFFFFF0
01FFFFFFFFFFFFF0
07FFFFFFFFFFFFF0
1FFFFFFFFFFFFFF0
7FFFFFFFFFFFFFF0
FFFFFFFFFFFFFFF0
3FFFFFFFFFFFFFF0
0FFFFFFFFFFFFFF0
03FFFFFFFFFFFFF0
00FFFFFFFFFFFFF0
003FFFFFFFFFFFF0
000FFFFFFFFFFFF0
0003FFFFFFFFFFF0
0000FFFFFFFFFFF0
00003FFFFFFFFFF0
00000FFFFFFFFFF0
000003FFFFFFFFF0
000000FFFFFFFFF0
0000003FFFFFFFF0
0000000FFFFFFFF0
00000003FFFFFFF0
00000000FFFFFFF0
000000003FFFFFF0
000000000FFFFFF0
0000000003FFFFF0
0000000000FFFFF0
00000000003FFFF0
00000000000FFFF0
000000000003FFF0
000000000000FFF0
0000000000003FF0
0000000000000FF0
00000000000003F0
00000000000000F0
0000000000000030
ENDCHAR
STARTCHAR 005E
ENCODING 94
SWIDTH 992 0
DWIDTH 62 0
BBX 60 22 1 9
BITMAP
0020000000004000
0040000000004000
00C0000000002000
0180000000003000
0380000000001800
0780000000001C00
0F00000000001E00
1F00000000000F00
3FFFFFFFFFFFFF80
7FFFFFFFFFFFFFC0
FFFFFFFFFFFFFFE0
FFFFFFFFFFFFFFF0
7FFFFFFFFFFFFFE0
3FFFFFFFFFFFFFC0
1F00000000000F80
0F00000000001F00
0780000000001E00
0380000000001C00
0180000000003800
00C0000000003000
0040000000002000
0020000000004000
ENDCHAR
STARTCHAR 005F
ENCODING 95
SWIDTH 992 0
DWIDTH 62 0
BBX 23 64 19 -12
BITMAP
001000
003800
007C00
00FE00
01FF00
03FF80
07FFC0
0FFFE0
1FFFF0
3C7E38
607E06
807E00
007E00
007E00
007E00
007E00
007E00
007E00
007E00
007E00
007E00
007E00
007E00
007E00
007E00
007E00
007E00
007E00
007E00
007E00
007E00
007E00
007E00
007E00
007E00
007E00
007E00
007E00
007E00
007E00
007E00
007E00
007E00
007E00
007E00
007E00
007E00
007E00
007E00
007E00
007E00
007E00
807E00
407E06
387E38
1F7FF0
0FFFF0
07FFE0
03FFC0
01FF80
00FF00
007E00
003C00
001800
ENDCHAR
STARTCHAR 0060
ENCODING 96
SWIDTH 976 0
DWIDTH 61 0
BBX 23 64 19 -12
BITMAP
007E00
007E00
007E00
007E00
007E00
007E00
007E00
007E00
007E00
007E00
007E00
007E00
007E00
007E00
007E00
007E00
007E00
007E00
007E00
007E00
007E00
007E00
007E00
007E00
007E00
007E00
007E00
007E00
007E00
007E00
007E00
007E00
007E00
007E00
007E00
007E00
007E00
007E00
007E00
007E00
007E00
007E00
007E00
007E00
007E00
007E00
007E00
007E00
007E00
007E00
007E00
007E00
807E00
607E06
3C7E3C
1FFFF8
0FFFF0
07FFE0
03FFC0
01FF80
00FF00
007E00
003C00
001800
ENDCHAR
STARTCHAR 0061
ENCODING 97
SWIDTH 992 0
DWIDTH 62 0
BBX 61 35 0 3
BITMAP
0000000000001000
0000000000001000
0000000000003800
0000000000003800
00000FFF80007800
00003FFFF0007800
0000FFFFFC00FC00
0003FFFFFF00FC00
0007FFFFFFC1FC00
000FFFFFFFF3FC00
001FFFFFFFFFFE00
003FFFFFFFFFFE00
007FFFFFFFFFFE00
00FFFFFFFFFFFE00
01FFFFFFFFFFFF00
01FFFFFFFFFFFF00
03FFFFFFFFFFFF00
07FF807FFFFFFF80
07FC0007FFFFFF80
0FF00001FFFFFF80
0FC000007FFFFF80
1F0000003FFFFFC0
1C0000000FFFFFC0
380000001FFFFFC0
300000003FFFFFC0
600000007FFFFFE0
40000000FFFFFFE0
80000000FFFFFFE0
00000001FFFFFFE0
00000003FFFFFFF0
00000007FFFFFFF0
0000000FFFFFFFF0
0000001FFFFFFFF0
0000001FFFFFFFF8
0000007FFFFFFFF8
ENDCHAR
STARTCHAR 0062
ENCODING 98
SWIDTH 992 0
DWIDTH 62 0
BBX 60 34 1 3
BITMAP
0040000000000000
0040000000000000
00E0000000000000
00E00003FE000000
00F0003FFFC00000
01F001FFFFF00000
01F807FFFFFC0000
01FC1FFFFFFE0000
01FC7FFFFFFF0000
03FEFFFFFFFF8000
03FFFFFFFFFFC000
03FFFFFFFFFFE000
03FFFFFFFFFFF000
07FFFFFFFFFFF800
07FFFFFFFFFFF800
07FFFFFFFFFFFC00
07FFFFFFF07FFE00
0FFFFFFF0003FE00
0FFFFFFC0000FF00
0FFFFFF000003F00
1FFFFFE000000F80
1FFFFF8000000780
1FFFFFC0000001C0
1FFFFFE0000000C0
3FFFFFE000000060
3FFFFFF000000020
3FFFFFF800000010
3FFFFFFC00000000
7FFFFFFE00000000
7FFFFFFE00000000
7FFFFFFF00000000
7FFFFFFF80000000
FFFFFFFFC0000000
FFFFFFFFE0000000
ENDCHAR
STARTCHAR 0063
ENCODING 99
SWIDTH 976 0
DWIDTH 61 0
BBX 60 65 1 -12
BITMAP
0000007FE0000000
000000FFF8000000
000001FFF8000000
000001FFF8000000
000001FFFC000000
000001FFFC000000
000001FFFC000000
000001FFFC000000
000001FFFC000000
000001FFFC000000
000001FFFC000000
000001FFFC000000
000001FFFC000000
000001FFFC000000
000001FFFC000000
000001FFFC000000
000001FFFC000000
000001FFFC000000
000001FFFC000000
000001FFFC000000
000001FFFC000000
000001FFFC000000
000001FFFC000000
000001FFFC000000
000001FFFC000000
000001FFFC000000
000001FFFC000000
000001FFFC000000
000001FFFC000000
000001FFFC000000
7F0001FFFC001FC0
7FC001FFFC007FE0
FFF001FFFC01FFE0
FFFC01FFFC07FFF0
FFFF01FFFC1FFFF0
FFFFC1FFFC7FFFF0
FFFFF1FFFDFFFFE0
FFFFFFFFFFFFFFE0
7FFFFFFFFFFFFFE0
3FFFFFFFFFFFFFC0
1FFFFFFFFFFFFF80
0FFFFFFFFFFFFF00
07FFFFFFFFFFFE00
03FFFFFFFFFFFC00
01FFFFFFFFFFF800
00FFFFFFFFFFF000
007FFFFFFFFFE000
003FFFFFFFFFC000
001FFFFFFFFF8000
000FFFFFFFFF0000
0007FFFFFFFE0000
0003FFFFFFFC0000
0001FFFFFFF80000
0000FFFFFFF00000
00007FFFFFE00000
00003FFFFFC00000
00001FFFFF800000
00000FFFFF000000
000007FFFE000000
000003FFFC000000
000001FFF8000000
000000FFF0000000
0000007FE0000000
0000003FC0000000
0000000F00000000
ENDCHAR
STARTCHAR 0064
ENCODING 100
SWIDTH 992 0
DWIDTH 62 0
BBX 59 61 1 -10
BITMAP
000000000000E000
000000000003F800
000000000007FC00
00000000000FFE00
00000000001FFF00
00000000003FFF80
07800000007FFFC0
1FC0000000FFFFC0
3FE0000001FFFFE0
7FE0000003FFFFE0
FFF0000007FFFFE0
FFF000000FFFFFE0
FFF800001FFFFFE0
FFF800003FFFFFC0
FFFC00007FFFFF80
FFFC0000FFFFFF00
FFFC0001FFFFFE00
FFFE0003FFFFFC00
FFFE0007FFFFF800
FFFE000FFFFFF000
FFFF001FFFFFE000
FFFF003FFFFFE000
FFFF007FFFFFC000
FFFF80FFFFFF8000
FFFF81FFFFFF0000
FFFF83FFFFFE0000
FFFFC7FFFFFC0000
FFFFCFFFFFF80000
FFFFDFFFFFF00000
FFFFFFFFFFE00000
FFFFFFFFFFC00000
FFFFFFFFFF800000
FFFFFFFFFF000000
FFFFFFFFFE000000
FFFFFFFFFC000000
FFFFFFFFF8000000
FFFFFFFFF0000000
FFFFFFFFE0000000
FFFFFFFFC0000000
FFFFFFFF80000000
FFFFFFFF00000000
FFFFFFFE00000000
FFFFFFFF80000000
FFFFFFFFF0000000
FFFFFFFFFC000000
FFFFFFFFFF800000
FFFFFFFFFFF00000
FFFFFFFFFFFE0000
FFFFFFFFFFFF8000
FFFFFFFFFFFFE000
FFFFFFFFFFFFF800
FFFFFFFFFFFFFC00
FFFFFFFFFFFFFC00
FFFFFFFFFFFFFC00
FFFFFFFFFFFFFC00
FFFFFFFFFFFFFC00
FFFFFFFFFFFFFC00
7FFFFFFFFFFFF800
3FFFFFFFFFFFF000
1FFFFFFFFFFFE000
07FFFFFFFFFF8000
ENDCHAR
STARTCHAR 0065
ENCODING 101
SWIDTH 992 0
DWIDTH 62 0
BBX 60 61 1 -10
BITMAP
00F0000000000000
01FC000000000000
03FE000000000000
07FF000000000000
0FFF800000000000
1FFFC00000000000
3FFFE00000001E00
7FFFF00000007F80
FFFFF80000007FC0
FFFFFC000000FFC0
FFFFFE000001FFE0
FFFFFF000001FFE0
FFFFFF800003FFF0
7FFFFFC00003FFF0
3FFFFFE00003FFF0
1FFFFFF00007FFF0
0FFFFFF80007FFF0
07FFFFFC0007FFF0
03FFFFFE000FFFF0
01FFFFFF000FFFF0
00FFFFFF800FFFF0
007FFFFFC01FFFF0
003FFFFFE01FFFF0
001FFFFFF01FFFF0
000FFFFFF83FFFF0
0007FFFFFC3FFFF0
0003FFFFFE3FFFF0
0001FFFFFF7FFFF0
0000FFFFFFFFFFF0
00007FFFFFFFFFF0
00003FFFFFFFFFF0
00001FFFFFFFFFF0
00000FFFFFFFFFF0
000007FFFFFFFFF0
000003FFFFFFFFF0
000001FFFFFFFFF0
000000FFFFFFFFF0
0000007FFFFFFFF0
0000003FFFFFFFF0
0000001FFFFFFFF0
0000000FFFFFFFF0
00000007FFFFFFF0
0000001FFFFFFFF0
000000FFFFFFFFF0
000007FFFFFFFFF0
00003FFFFFFFFFF0
0001FFFFFFFFFFF0
000FFFFFFFFFFFF0
003FFFFFFFFFFFF0
00FFFFFFFFFFFFF0
01FFFFFFFFFFFFF0
03FFFFFFFFFFFFF0
07FFFFFFFFFFFFF0
07FFFFFFFFFFFFF0
07FFFFFFFFFFFFF0
07FFFFFFFFFFFFE0
03FFFFFFFFFFFFE0
03FFFFFFFFFFFFC0
01FFFFFFFFFFFFC0
00FFFFFFFFFFFF80
003FFFFFFFFFFE00
ENDCHAR
STARTCHAR 0066
ENCODING 102
SWIDTH 976 0
DWIDTH 61 0
BBX 61 57 0 -8
BITMAP
0000001C00000000
0000007F00000000
000000FF80000000
000001FF80000000
000003FFC0000000
000007FF80000000
00000FFF80000000
00001FFF80000000
00003FFF00000000
00007FFF00000000
0000FFFF00000000
0001FFFE00000000
0003FFFE00000000
0007FFFC00000000
000FFFFC00000000
001FFFF800000000
003FFFF800000000
007FFFF000000000
00FFFFF000000000
01FFFFE000000000
03FFFFE000000000
07FFFFC000000000
0FFFFFFFFFFFFFE0
1FFFFFFFFFFFFFF0
3FFFFFFFFFFFFFF8
7FFFFFFFFFFFFFF8
7FFFFFFFFFFFFFF8
7FFFFFFFFFFFFFF8
FFFFFFFFFFFFFFF8
FFFFFFFFFFFFFFF8
7FFFFFFFFFFFFFF8
7FFFFFFFFFFFFFF8
3FFFFFFFFFFFFFF8
1FFFFFFFFFFFFFF8
0FFFFFFFFFFFFFF0
07FFFFFFFFFFFFE0
03FFFFE000000000
01FFFFE000000000
00FFFFF000000000
007FFFF000000000
003FFFF800000000
001FFFF800000000
000FFFFC00000000
0007FFFC00000000
0003FFFE00000000
0001FFFE00000000
0000FFFF00000000
00007FFF00000000
00003FFF80000000
00001FFF80000000
00000FFF80000000
000007FF80000000
000003FFC0000000
000001FF80000000
000000FF80000000
0000007F00000000
0000001C00000000
ENDCHAR
STARTCHAR 0067
ENCODING 103
SWIDTH 992 0
DWIDTH 62 0
BBX 61 56 0 -8
BITMAP
00000003F0000000
00000007F8000000
0000000FFC000000
0000000FFE000000
0000000FFF000000
0000000FFF800000
0000000FFFC00000
00000007FFE00000
00000007FFF00000
00000003FFF80000
00000003FFFC0000
00000001FFFE0000
00000001FFFF0000
00000000FFFF8000
00000000FFFFC000
000000007FFFE000
000000007FFFF000
000000003FFFF800
000000003FFFFC00
000000001FFFFE00
000000001FFFFF00
000000001FFFFF80
3FFFFFFFFFFFFFC0
7FFFFFFFFFFFFFE0
7FFFFFFFFFFFFFF0
FFFFFFFFFFFFFFF8
FFFFFFFFFFFFFFF8
FFFFFFFFFFFFFFF8
FFFFFFFFFFFFFFF8
FFFFFFFFFFFFFFF8
FFFFFFFFFFFFFFF8
FFFFFFFFFFFFFFF0
7FFFFFFFFFFFFFE0
7FFFFFFFFFFFFFC0
3FFFFFFFFFFFFF80
000000001FFFFF00
000000001FFFFE00
000000003FFFFC00
000000003FFFF800
000000007FFFF000
000000007FFFE000
00000000FFFFC000
00000000FFFF8000
00000001FFFF0000
00000001FFFE0000
00000003FFFC0000
00000003FFF80000
00000007FFF00000
00000007FFE00000
0000000FFFC00000
0000000FFF800000
0000000FFF000000
0000000FFE000000
0000000FFC000000
00000007F8000000
00000003F0000000
ENDCHAR
STARTCHAR 0068
ENCODING 104
SWIDTH 992 0
DWIDTH 62 0
BBX 60 64 1 -12
BITMAP
0000001F80000000
0000007FC0000000
000000FFE0000000
000001FFF0000000
000003FFF8000000
000007FFFC000000
00000FFFFE000000
00001FFFFF000000
00003FFFFF800000
00007FFFFFC00000
0000FFFFFFE00000
0001FFFFFFF00000
0003FFFFFFF80000
0007FFFFFFFC0000
000FFFFFFFFE0000
001FFFFFFFFF0000
003FFFFFFFFF8000
007FFFFFFFFFC000
00FFFFFFFFFFE000
01FFFFFFFFFFF000
03FFFFFFFFFFF800
07FFFFFFFFFFFC00
0FFFFFFFFFFFFE00
1FFFFFFFFFFFFF00
3FFFFFFFFFFFFF80
7FFFFFFFFFFFFFC0
7FFFFFFFFFFFFFE0
FFFFFDFFFFFFFFE0
FFFFF1FFFCFFFFF0
FFFFC1FFFC3FFFF0
FFFF01FFFC0FFFF0
FFFC01FFFC03FFF0
FFF001FFFC00FFE0
7FC001FFFC003FE0
3E0001FFFC000FC0
000001FFFC000000
000001FFFC000000
000001FFFC000000
000001FFFC000000
000001FFFC000000
000001FFFC000000
000001FFFC000000
000001FFFC000000
000001FFFC000000
000001FFFC000000
000001FFFC000000
000001FFFC000000
000001FFFC000000
000001FFFC000000
000001FFFC000000
000001FFFC000000
000001FFFC000000
000001FFFC000000
000001FFFC000000
000001FFFC000000
000001FFFC000000
000001FFFC000000
000001FFFC000000
000001FFFC000000
000001FFFC000000
000001FFFC000000
000001FFF8000000
000000FFF8000000
0000007FF0000000
ENDCHAR
STARTCHAR 0069
ENCODING 105
SWIDTH 976 0
DWIDTH 61 0
BBX 61 62 0 -11
BITMAP
03FFFFFFFFFFC000
0FFFFFFFFFFFF000
1FFFFFFFFFFFFC00
3FFFFFFFFFFFFC00
7FFFFFFFFFFFFE00
7FFFFFFFFFFFFE00
7FFFFFFFFFFFFF00
FFFFFFFFFFFFFF00
FFFFFFFFFFFFFF00
FFFFFFFFFFFFFE00
FFFFFFFFFFFFFC00
FFFFFFFFFFFFF800
FFFFFFFFFFFFE000
FFFFFFFFFFFF8000
FFFFFFFFFFFE0000
FFFFFFFFFFF00000
FFFFFFFFFF800000
FFFFFFFFFC000000
FFFFFFFFE0000000
FFFFFFFF00000000
FFFFFFFF00000000
FFFFFFFF80000000
FFFFFFFFC0000000
FFFFFFFFE0000000
FFFFFFFFF0000000
FFFFFFFFF8000000
FFFFFFFFFC000000
FFFFFFFFFE000000
FFFFFFFFFF000000
FFFFFFFFFF800000
FFFFFFFFFFC00000
FFFFFFFFFFE00000
FFFFFFFFFFF00000
FFFFEFFFFFF80000
FFFFE7FFFFFC0000
FFFFC3FFFFFE0000
FFFFC1FFFFFF0000
FFFFC0FFFFFF8000
FFFF807FFFFFC000
FFFF803FFFFFE000
FFFF801FFFFFF000
FFFF000FFFFFF800
FFFF0007FFFFFC00
FFFF0003FFFFFE00
FFFE0001FFFFFF00
FFFE0000FFFFFF80
FFFE00007FFFFFC0
FFFC00003FFFFFE0
FFFC00001FFFFFF0
7FFC00000FFFFFF8
7FF8000007FFFFF8
7FF8000003FFFFF8
3FF0000001FFFFF8
1FE0000000FFFFF0
0FC00000007FFFF0
00000000003FFFE0
00000000001FFFC0
00000000000FFF80
000000000007FF00
000000000003FE00
000000000001FC00
0000000000003000
ENDCHAR
STARTCHAR 006A
ENCODING 106
SWIDTH 992 0
DWIDTH 62 0
BBX 60 62 1 -11
BITMAP
003FFFFFFFFFFE00
00FFFFFFFFFFFF80
01FFFFFFFFFFFFC0
03FFFFFFFFFFFFE0
03FFFFFFFFFFFFE0
07FFFFFFFFFFFFF0
07FFFFFFFFFFFFF0
07FFFFFFFFFFFFF0
07FFFFFFFFFFFFF0
07FFFFFFFFFFFFF0
03FFFFFFFFFFFFF0
01FFFFFFFFFFFFF0
007FFFFFFFFFFFF0
001FFFFFFFFFFFF0
0003FFFFFFFFFFF0
00007FFFFFFFFFF0
00000FFFFFFFFFF0
000001FFFFFFFFF0
0000003FFFFFFFF0
0000000FFFFFFFF0
0000000FFFFFFFF0
0000001FFFFFFFF0
0000003FFFFFFFF0
0000007FFFFFFFF0
000000FFFFFFFFF0
000001FFFFFFFFF0
000003FFFFFFFFF0
000007FFFFFFFFF0
00000FFFFFFFFFF0
00001FFFFFFFFFF0
00003FFFFFFFFFF0
00007FFFFFFFFFF0
0000FFFFFFFFFFF0
0001FFFFFF7FFFF0
0003FFFFFE3FFFF0
0007FFFFFC3FFFF0
000FFFFFF83FFFF0
001FFFFFF01FFFF0
003FFFFFE01FFFF0
007FFFFFC01FFFF0
00FFFFFF800FFFF0
01FFFFFF000FFFF0
03FFFFFE000FFFF0
07FFFFFC0007FFF0
0FFFFFF80007FFF0
1FFFFFF00007FFF0
3FFFFFE00003FFF0
7FFFFFC00003FFF0
FFFFFF800001FFF0
FFFFFF000001FFF0
FFFFFE000001FFF0
FFFFFC000000FFE0
FFFFF80000007FC0
FFFFF00000007FC0
7FFFE00000003F00
3FFFC00000000000
1FFF800000000000
0FFF000000000000
07FE000000000000
03FC000000000000
01F8000000000000
0040000000000000
ENDCHAR
STARTCHAR 006B
ENCODING 107
SWIDTH 976 0
DWIDTH 61 0
BBX 61 52 0 -6
BITMAP
0000000020000000
0000000030000000
0000000038000000
000000003C000000
000000003E000000
000000003F000000
000000003F800000
000000003FC00000
000000003FE00000
000000003FF00000
000000003FF80000
000000003FFC0000
000000003FFE0000
000007FFFFFF0000
00007FFFFFFF8000
0003FFFFFFFFC000
000FFFFFFFFFE000
001FFFFFFFFFF000
007FFFFFFFFFF800
00FFFFFFFFFFFC00
01FFFFFFFFFFFE00
03FFFFFFFFFFFF00
03FFFFFFFFFFFF80
07FFFFFFFFFFFFC0
0FFFFFFFFFFFFFE0
0FFFFFFFFFFFFFF0
1FFFFFFFFFFFFFF8
1FFFFFFFFFFFFFF0
1FFFFFFFFFFFFFC0
3FFFE001FFFFFF00
3FFF8001FFFFFC00
3FFE0003FFFFF800
7FF80003FFFFE000
7FF00003FFFF8000
7FE00003FFFE0000
7FC00003FFFC0000
7F800003FFF00000
7F000007FFC00000
7E000007FF800000
7E000007FE000000
FC000007F8000000
FC000007E0000000
F8000007C0000000
F000000F00000000
F000000C00000000
7000000800000000
6000000000000000
6000000000000000
4000000000000000
4000000000000000
4000000000000000
4000000000000000
ENDCHAR
STARTCHAR 006C
ENCODING 108
SWIDTH 1088 0
DWIDTH 68 0
BBX 67 58 0 -9
BITMAP
000000040000000000
000000040000000000
0000000C0000000000
0000001C0000000000
0000003C0000000000
0000007C0000000000
000000FC0000000000
000001FC0000000000
000003FC0000000000
000007FC0000000000
00000FFC0000000000
00001FFC0000000000
00003FFC0000000000
00007FFC0000000000
0000FFFFFF00000000
0001FFFFFFFC000000
0003FFFFFFFFC00000
0007FFFFFFFFF00000
000FFFFFFFFFFC0000
001FFFFFFFFFFF0000
003FFFFFFFFFFF8000
007FFFFFFFFFFFC000
00FFFFFFFFFFFFE000
01FFFFFFFFFFFFF000
03FFFFFFFFFFFFF800
07FFFFFFFFFFFFFC00
0FFFFFFFFFFFFFFC00
1FFFFFFFFFFFFFFE00
3FFFFFFFFFFFFFFF00
FFFFFFFFFFFFFFFF00
3FFFFFFFFFFFFFFF80
1FFFFFFFFFFFFFFF80
07FFFFFFC007FFFF80
01FFFFFFC000FFFFC0
007FFFFFC0003FFFC0
003FFFFFC0000FFFC0
000FFFFFC00003FFC0
0003FFFFE00001FFC0
0000FFFFE00000FFE0
00007FFFE000007FE0
00001FFFE000003FE0
000007FFE000001FE0
000003FFE000001FE0
000000FFF000000FE0
0000003FF0000007E0
0000000FF0000007E0
00000007F0000003E0
00000001F0000003E0
0000000070000001E0
0000000018000001E0
0000000008000000E0
0000000000000000E0
000000000000000060
000000000000000060
000000000000000060
000000000000000020
000000000000000020
000000000000000020
ENDCHAR
STARTCHAR 006D
ENCODING 109
SWIDTH 976 0
DWIDTH 61 0
BBX 54 64 4 -12
BITMAP
0001FFFFF80000
0001FFFFF80000
0001FFFFF80000
0001FFFFF80000
0001FFFFF80000
0001FFFFF80000
0001FFFFF80000
0001FFFFF80000
0001FFFFF80000
0001FFFFF80000
0001FFFFF80000
0001FFFFF80000
0001FFFFF80000
0001FFFFF80000
0001FFFFF80000
0001FFFFF80000
0001FFFFF80000
0001FFFFF80000
0001FFFFF80000
0001FFFFF80000
0001FFFFF80000
0001FFFFF80000
0001FFFFF80000
0001FFFFF80000
0001FFFFF80000
0001FFFFF80000
0001FFFFF80000
0001FFFFF80000
0001FFFFF80000
0001FFFFF80000
0001FFFFF80000
0001FFFFF80000
0001FFFFF80000
0001FFFFF80000
0001FFFFF80000
FFFFFFFFFFFFFC
7FFFFFFFFFFFF8
3FFFFFFFFFFFF0
1FFFFFFFFFFFE0
0FFFFFFFFFFFC0
07FFFFFFFFFF80
03FFFFFFFFFF00
01FFFFFFFFFE00
01FFFFFFFFFC00
00FFFFFFFFF800
007FFFFFFFF000
003FFFFFFFE000
001FFFFFFFC000
000FFFFFFF8000
0007FFFFFF8000
0003FFFFFF0000
0001FFFFFE0000
0000FFFFFC0000
00007FFFF80000
00003FFFF00000
00001FFFE00000
00001FFFC00000
00000FFF800000
000007FF000000
000003FE000000
000001FC000000
000000F8000000
00000078000000
00000030000000
ENDCHAR
STARTCHAR 006E
ENCODING 110
SWIDTH 992 0
DWIDTH 62 0
BBX 61 50 0 -5
BITMAP
0000001000000000
0000003000000000
0000007000000000
000000F000000000
000003F000000000
000007F000000000
00000FF000000000
00001FF000000000
00003FF000000000
00007FF000000000
0000FFF000000000
0001FFF000000000
0003FFF000000000
0007FFF000000000
000FFFFFFFFFFFF8
001FFFFFFFFFFFF8
003FFFFFFFFFFFF8
00FFFFFFFFFFFFF8
01FFFFFFFFFFFFF8
03FFFFFFFFFFFFF8
07FFFFFFFFFFFFF8
0FFFFFFFFFFFFFF8
1FFFFFFFFFFFFFF8
3FFFFFFFFFFFFFF8
FFFFFFFFFFFFFFF8
7FFFFFFFFFFFFFF8
3FFFFFFFFFFFFFF8
1FFFFFFFFFFFFFF8
0FFFFFFFFFFFFFF8
07FFFFFFFFFFFFF8
03FFFFFFFFFFFFF8
00FFFFFFFFFFFFF8
007FFFFFFFFFFFF8
003FFFFFFFFFFFF8
001FFFFFFFFFFFF8
000FFFF000000000
0007FFF000000000
0003FFF000000000
0001FFF000000000
0000FFF000000000
00007FF000000000
00003FF000000000
00001FF000000000
000007F000000000
000003F000000000
000001F000000000
000000F000000000
0000007000000000
0000003000000000
0000001000000000
ENDCHAR
STARTCHAR 006F
ENCODING 111
SWIDTH 992 0
DWIDTH 62 0
BBX 60 50 1 -5
BITMAP
0000000040000000
0000000060000000
0000000070000000
0000000078000000
000000007C000000
000000007E000000
000000007F000000
000000007F800000
000000007FC00000
000000007FE00000
000000007FF00000
000000007FF80000
000000007FFE0000
000000007FFF0000
FFFFFFFFFFFF8000
FFFFFFFFFFFFC000
FFFFFFFFFFFFE000
FFFFFFFFFFFFF000
FFFFFFFFFFFFF800
FFFFFFFFFFFFFC00
FFFFFFFFFFFFFE00
FFFFFFFFFFFFFF00
FFFFFFFFFFFFFF80
FFFFFFFFFFFFFFC0
FFFFFFFFFFFFFFF0
FFFFFFFFFFFFFFE0
FFFFFFFFFFFFFFC0
FFFFFFFFFFFFFF80
FFFFFFFFFFFFFF00
FFFFFFFFFFFFFE00
FFFFFFFFFFFFFC00
FFFFFFFFFFFFF800
FFFFFFFFFFFFF000
FFFFFFFFFFFFE000
FFFFFFFFFFFFC000
000000007FFF0000
000000007FFE0000
000000007FFC0000
000000007FF80000
000000007FF00000
000000007FE00000
000000007FC00000
000000007F800000
000000007F000000
000000007E000000
000000007C000000
0000000078000000
0000000070000000
0000000040000000
0000000040000000
ENDCHAR
STARTCHAR 0070
ENCODING 112
SWIDTH 992 0
DWIDTH 62 0
BBX 54 64 4 -12
BITMAP
00000020000000
00000070000000
000000F8000000
000001FC000000
000003FE000000
000003FF000000
000007FF800000
00000FFFC00000
00001FFFE00000
00003FFFF00000
00007FFFF80000
0000FFFFFC0000
0001FFFFFE0000
0003FFFFFE0000
0007FFFFFF0000
000FFFFFFF8000
001FFFFFFFC000
003FFFFFFFE000
003FFFFFFFF000
007FFFFFFFF800
00FFFFFFFFFC00
01FFFFFFFFFE00
03FFFFFFFFFF00
07FFFFFFFFFF80
0FFFFFFFFFFFC0
1FFFFFFFFFFFE0
3FFFFFFFFFFFE0
7FFFFFFFFFFFF0
FFFFFFFFFFFFFC
0000FFFFF80000
0000FFFFF80000
0000FFFFF80000
0000FFFFF80000
0000FFFFF80000
0000FFFFF80000
0000FFFFF80000
0000FFFFF80000
0000FFFFF80000
0000FFFFF80000
0000FFFFF80000
0000FFFFF80000
0000FFFFF80000
0000FFFFF80000
0000FFFFF80000
0000FFFFF80000
0000FFFFF80000
0000FFFFF80000
0000FFFFF80000
0000FFFFF80000
0000FFFFF80000
0000FFFFF80000
0000FFFFF80000
0000FFFFF80000
0000FFFFF80000
0000FFFFF80000
0000FFFFF80000
0000FFFFF80000
0000FFFFF80000
0000FFFFF80000
0000FFFFF80000
0000FFFFF80000
0000FFFFF80000
0000FFFFF80000
0000FFFFF80000
ENDCHAR
STARTCHAR 0071
ENCODING 113
SWIDTH 992 0
DWIDTH 62 0
BBX 55 64 3 -12
BITMAP
00000000020000
00000000060000
000000000F0000
000000000F0000
000000001F8000
000000001F8000
000000003FC000
000000003FC000
000000007FE000
00000000FFF000
00000000FFF000
00000001FFF800
00000001FFF800
00000003FFFC00
00000003FFFE00
00000007FFFE00
0000000FFFFF00
FFE0000FFFFF00
FFE0001FFFFF80
FFE0001FFFFF80
FFE0003FFFFFC0
FFE0003FFFFFE0
FFE0007FFFFFE0
FFE000FFFFFFF0
FFE000FFFFFFF0
FFE001FFFFFFF8
FFE001FFFFFFF8
FFE003FFFFFFFC
FFE007FFFFFFFE
FFE007FFFFFFFE
FFE000007FE000
FFE000007FE000
FFE000007FE000
FFE000007FE000
FFE000007FE000
FFE000007FE000
FFE000007FE000
FFE000007FE000
FFE000007FE000
FFE000007FE000
FFE000007FE000
FFE000007FE000
FFE000007FE000
FFE000007FE000
FFE000007FE000
FFE00000FFE000
7FE00000FFE000
7FF00000FFC000
7FF00001FFC000
7FF80001FFC000
3FF80003FFC000
3FFC0007FF8000
1FFF001FFF8000
1FFFC07FFF0000
0FFFFFFFFF0000
0FFFFFFFFE0000
07FFFFFFFC0000
03FFFFFFF80000
01FFFFFFF00000
00FFFFFFE00000
007FFFFFC00000
001FFFFF000000
0007FFFC000000
0000FFE0000000
ENDCHAR
STARTCHAR 0072
ENCODING 114
SWIDTH 992 0
DWIDTH 62 0
BBX 61 52 0 -6
BITMAP
0000000800000000
0000003800000000
0000007800000000
000001F800000000
000007F800000000
00001FF800000000
00003FF800000000
0000FFF800000000
0003FFF800000000
000FFFF800000000
001FFFF800000000
007FFFF800000000
01FFFFFFFFFC0000
03FFFFFFFFFF8000
0FFFFFFFFFFFE000
3FFFFFFFFFFFF800
FFFFFFFFFFFFFC00
3FFFFFFFFFFFFE00
0FFFFFFFFFFFFF00
03FFFFFFFFFFFF80
01FFFFFFFFFFFFC0
007FFFF8003FFFC0
001FFFF80003FFE0
0007FFF80001FFE0
0003FFF80000FFF0
0000FFF800007FF0
00003FF800003FF0
00000FF800003FF8
000007F800001FF8
000001F800001FF8
0000007800001FF8
0000001800001FF8
0000000800001FF8
0000000000001FF8
0000000000001FF8
0000000000001FF8
0000000000003FF0
0000000000003FF0
0000000000007FF0
000000000000FFE0
000000000001FFE0
000000000007FFE0
00007FFFFFFFFFC0
00007FFFFFFFFF80
00007FFFFFFFFF00
00007FFFFFFFFF00
00007FFFFFFFFE00
00007FFFFFFFF800
00007FFFFFFFF000
00007FFFFFFFC000
00007FFFFFFF0000
00007FFFFFF80000
ENDCHAR
STARTCHAR 0073
ENCODING 115
SWIDTH 992 0
DWIDTH 62 0
BBX 61 47 0 -4
BITMAP
000003FFFF000000
00003FFFFFF00000
0001FFFFFFFC0000
0007FFFFFFFF8000
001FFFFFFFFFC000
007FFFFFFFFFF000
00FFFFFFFFFFF800
01FFFFFFFFFFFE00
07FFFFFFFFFFFF00
07FFFFFFFFFFFF80
0FFFFFFFFFFFFFC0
1FFFFFFFFFFFFFC0
3FFFFFFFFFFFFFE0
3FFFFFFFFFFFFFE0
7FFFFFFFFFFFFFF0
7FFFFFFFFFFFFFF0
7FFFFFFFFFFFFFF8
7FFFFFFFFFFFFFF8
FFFFFFFFFFFFFFF8
FFFFFFFFFFFFFFF8
FFFFFFFFFFFFFFF8
FFFFFFFFFFFFFFF8
7FFFFFFFFFFFFFF8
7FFFFFFFFFFFFFF0
7FFFFFFFFFFFFFF0
3FFFFFFFFFFFFFF0
3FFFFFFFFFFFFFE0
1FFFFFFFFFFFFFE0
1FFFFFFFFFFFFFC0
0FFFFFFFFFFFFF80
07FFFFFFFFFFFF00
03FFFFFFFFFFFE00
01FFFFFFFFFFFC00
00FFFFFFFFFFF800
007FFFFFFFFFE000
001FFFFFFFFF8000
0007FFFFFFFE0000
0001FFFFFFF80000
00003FFFFFC00000
000003FFF8000000
000003FC00000000
000003F800000000
000007F000000000
000007E000000000
00000FC000000000
00003E0000000000
0000E00000000000
ENDCHAR
STARTCHAR 0074
ENCODING 116
SWIDTH 992 0
DWIDTH 62 0
BBX 61 52 0 -6
BITMAP
0FFFFFFFFFFFFFC0
3FFFFFFFFFFFFFF0
7FFFFFFFFFFFFFF8
7FFFFFFFFFFFFFF8
FFFFFFFFFFFFFFF8
FFFFFFFFFFFFFFF8
FFFFFFFFFFFFFFF8
FFFFFFFFFFFFFFF8
FFFFFFFFFFFFFFF8
FFFFFFFFFFFFFFF8
FFFFFFFFFFFFFFF8
FFFFFFFFFFFFFFF8
FFFFFFFFFFFFFFF8
FFFFFFFFFFFFFFF8
FFFFFFFFFFFFFFF8
FFFFFFFFFFFFFFF8
FFFFFFFFFFFFFFF8
FFFFFFFFFFFFFFF8
FFFFFFFFFFFFFFF8
FFFFFFFFFFFFFFF8
FFFFFFFFFFFFFFF8
FFFFFFFFFFFFFFF8
FFFFFFFFFFFFFFF8
FFFFFFFFFFFFFFF8
FFFFFFFFFFFFFFF8
FFFFFFFFFFFFFFF8
FFFFFFFFFFFFFFF8
FFFFFFFFFFFFFFF8
FFFFFFFFFFFFFFF8
FFFFFFFFFFFFFFF8
FFFFFFFFFFFFFFF8
FFFFFFFFFFFFFFF8
FFFFFFFFFFFFFFF8
FFFFFFFFFFFFFFF8
FFFFFFFFFFFFFFF8
FFFFFFFFFFFFFFF8
FFFFFFFFFFFFFFF8
7FFFFFFFFFFFFFF8
7FFFFFFFFFFFFFF0
1FFFFFFFFFFFFFC0
0000003FC0000000
0000007F80000000
0000007F00000000
000000FC00000000
000000F800000000
000000F000000000
000001E000000000
000001C000000000
0000038000000000
0000020000000000
0000040000000000
0000080000000000
ENDCHAR
STARTCHAR 0075
ENCODING 117
SWIDTH 992 0
DWIDTH 62 0
BBX 61 48 0 -4
BITMAP
0000003FF0000000
00000FFFFF800000
00007FFFFFF80000
0003FFFFFFFE0000
000FFFFFFFFF8000
003FFFFFFFFFE000
007FFFFFFFFFF800
01FFFFFFFFFFFC00
03FFFFFFFFFFFE00
07FFFFFFFFFFFF00
0FFFFFFFFFFFFF80
1FFFFFFFFFFFFFC0
1FFFFFFFFFFFFFE0
3FFFFFFFFFFFFFE0
3FFFFFFFFFFFFFF0
7FFFFFFFFFFFFFF0
7FFFFFFFFFFFFFF0
FFFFFFFFFFFFFFF8
FFFFFFFFFFFFFFF8
FFFFFFFFFFFFFFF8
FFFFFFFFFFFFFFF8
FFFFFFFFFFFFFFF8
FFFFFFFFFFFFFFF8
FFFFFFFFFFFFFFF8
7FFFFFFFFFFFFFF0
7FFFFFFFFFFFFFF0
7FFFFFFFFFFFFFF0
3FFFFFFFFFFFFFE0
1FFFFFFFFFFFFFE0
1FFFFFFFFFFFFFC0
0FFFFFFFFFFFFF80
07FFFFFFFFFFFF00
03FFFFFFFFFFFE00
01FFFFFFFFFFFC00
007FFFFFFFFFF800
003FFFFFFFFFF000
000FFFFFFFFFC000
0003FFFFFFFF0000
00007FFFFFFC0000
00000FFFFFE00000
0000003FFF000000
00000001FF000000
00000000FF000000
000000007F000000
000000003F800000
000000000FC00000
0000000003E00000
0000000000180000
ENDCHAR
STARTCHAR 0076
ENCODING 118
SWIDTH 992 0
DWIDTH 62 0
BBX 61 51 0 -6
BITMAP
3FFFFFFFFFFFFFF0
7FFFFFFFFFFFFFF0
7FFFFFFFFFFFFFF8
FFFFFFFFFFFFFFF8
FFFFFFFFFFFFFFF8
FFFFFFFFFFFFFFF8
FFFFFFFFFFFFFFF8
FFFFFFFFFFFFFFF8
FFFFFFFFFFFFFFF8
FFFFFFFFFFFFFFF8
FFFFFFFFFFFFFFF8
FFFFFFFFFFFFFFF8
FFFFFFFFFFFFFFF8
FFFFFFFFFFFFFFF8
FFFFFFFFFFFFFFF8
FFFFFFFFFFFFFFF8
FFFFFFFFFFFFFFF8
FFFFFFFFFFFFFFF8
FFFFFFFFFFFFFFF8
FFFFFFFFFFFFFFF8
FFFFFFFFFFFFFFF8
FFFFFFFFFFFFFFF8
FFFFFFFFFFFFFFF8
FFFFFFFFFFFFFFF8
FFFFFFFFFFFFFFF8
FFFFFFFFFFFFFFF8
FFFFFFFFFFFFFFF8
FFFFFFFFFFFFFFF8
FFFFFFFFFFFFFFF8
FFFFFFFFFFFFFFF8
FFFFFFFFFFFFFFF8
FFFFFFFFFFFFFFF8
FFFFFFFFFFFFFFF8
FFFFFFFFFFFFFFF8
FFFFFFFFFFFFFFF8
FFFFFFFFFFFFFFF8
7FFFFFFFFFFFFFF8
7FFFFFFFFFFFFFF0
1FFFFFFFFFFFFFE0
0000001FF0000000
00000007F0000000
00000003F0000000
00000001F8000000
00000000F8000000
000000007C000000
000000003C000000
000000000E000000
0000000006000000
0000000003000000
0000000001000000
0000000000800000
ENDCHAR
STARTCHAR 0077
ENCODING 119
SWIDTH 992 0
DWIDTH 62 0
BBX 61 60 0 -10
BITMAP
0000000FC0000000
0000001FE0000000
0000003FF0000000
0000007FF0000000
0000007FF8000000
0000007FF8000000
0000007FF8000000
001F007FF807C000
007F81FFF80FF000
007FEFFFFC1FF800
00FFFFFFFF3FF800
00FFFFFFFFFFFC00
00FFFFFFFFFFFC00
00FFFFFFFFFFFC00
00FFFFFFFFFFFC00
00FFFFFFFFFFF800
007FFFFFFFFFF800
003FFFFFFFFFF000
001FFFFFFFFFE000
003FFFFFFFFFC000
003FFFF87FFF8000
007FFFC01FFFC000
007FFF8007FFC000
007FFF0003FFC000
0FFFFE0001FFFF80
1FFFFC0001FFFFE0
3FFFFC0000FFFFF0
7FFFF80000FFFFF0
7FFFF80000FFFFF8
FFFFF80000FFFFF8
FFFFF80000FFFFF8
7FFFF80000FFFFF8
7FFFF80000FFFFF0
3FFFFC0000FFFFF0
3FFFFC0001FFFFE0
0FFFFE0001FFFF80
007FFE0003FFC000
003FFF0007FF8000
003FFFC00FFF8000
001FFFF07FFF8000
001FFFFFFFFFC000
001FFFFFFFFFE000
003FFFFFFFFFF000
007FFFFFFFFFF000
00FFFFFFFFFFF800
00FFFFFFFFFFFC00
00FFFFFFFFFFFC00
00FFFFFFFFFFFC00
00FFFFFFFE7FFC00
00FFF1FFF83FF800
00FFE07FF81FF800
007FC07FF80FF000
001F007FF807E000
0000007FF8000000
0000007FF8000000
0000007FF8000000
0000007FF0000000
0000003FF0000000
0000003FE0000000
0000000FC0000000
ENDCHAR
STARTCHAR 0078
ENCODING 120
SWIDTH 992 0
DWIDTH 62 0
BBX 61 51 0 -5
BITMAP
0001000000000000
0107800000000000
03C7C00000000000
07C7C00000000000
07FF800000000000
03FFCE0000000000
03FFFF0000000000
03FFFF0000000000
7FFFFF0000000000
FFC1FE0000000000
FF80FC0018000000
7F807C007E000000
3F807C007F01E000
0F807F00FF03F000
0780FF80FF07F800
1FC1FF80FFC7F800
3FE3FF80FFFFF800
7FFFFE00FFFFF800
3FFFF0E3FFFFF000
3DFFE1FFFFFFF000
00FFF3FFFFFFE000
00FFF3FFFFFFF000
00F9F3FFFFFFF1C0
00F0E3FFFFFFFFF0
006003FFFC1FFFF0
000001FFF007FFF8
0000007FE003FFF8
0000007FE003FFF8
0000007FC001FFF0
0000007FC001FFE0
0000007FC001FF80
000003FFC001FC00
000007FFC001FC00
00000FFFC001FC00
00000FFFE003FE00
00000FFFF007FF80
00000FFFF80FFFC0
000007FFFF7FFFE0
000003FFFFFFFFE0
0000000FFFFFFFE0
00000007FFFFFFE0
00000003FFFF9FE0
00000007FFFF07C0
0000000FFFFF0000
0000000FFFFF0000
0000000FF8FF8000
0000000FF07F8000
00000007F07F8000
00000007E07F8000
00000000803F0000
00000000001E0000
ENDCHAR
STARTCHAR 0079
ENCODING 121
SWIDTH 992 0
DWIDTH 62 0
BBX 61 54 0 -6
BITMAP
000007F000000000
00001FFE00000000
00007FFF8007F800
0001FFFFE01FFF00
0003FFFFF03FFF80
0007FFFFFC3FFFC0
000FFFC0007FF800
001FFF80007FC000
003FFF00007FC000
003FFF00007FE030
007FFF0000FFF7F0
00FFFF8000FFFFE0
00FFFFC000FFFFE0
01FFFFE001FFFFC0
07FFFFF001FFFF80
3FFEFFF803FFFF00
7FF83FFC03FFFE00
FFF00FFC07FFF800
7FF007FE0FFFE000
7FF003FF1FFFF000
3FF000FFFFFFF000
1FE0007FFFFFF800
07E0003FFFF80000
03C0001FFFE00000
0080000FFFC00000
00000007FF800000
0000000FFF000000
0000003FFF800000
0000007FFFC00000
000000FFFFE00000
000001FFFFF00000
000007FFFFF80000
00000FFF9FFC0000
00001FFF0FFE0000
00003FFE07FF0000
0000FFFC03FF8000
0001FFF801FFC000
0003FFF001FFE000
0007FFE000FFF000
000FFFC0007FF800
003FFF80003FFC00
007FFF00001FFF00
00FFFE00000FFF80
01FFFC000007FFC0
03FFF8000003FFE0
07FFF0000003FFF0
0FFFE0000001FFF8
0FFFC0000000FFF0
0FFF800000007FE0
07FF000000003FC0
07FE000000001F80
03FC000000000F00
00F0000000000600
0000000000000400
ENDCHAR
STARTCHAR 007A
ENCODING 122
SWIDTH 992 0
DWIDTH 62 0
BBX 61 60 0 -10
BITMAP
0000000004000000
0000000008000000
0000000018000000
0000000038000000
0000000078000000
00000000F0000000
00000001F0000000
00000003F0000000
00000007F0000000
0000000FF0000000
0000000FE0000000
0000000FE0000000
0000000FE0000000
0000001FE0000000
0000001FC0000000
0000001FC0000000
0000001FC0000000
0000001FC0000000
0000003FC0000000
0000003F80000000
0000003F80000000
0000003F80000000
0000007F80000000
0000007F80000038
0000007F000003E0
0000007F00007FC0
007F007F0007FF80
01FFE0FF00FFFF00
07FFF0FE1FFFFE00
0FFFF8FFFFFFFC00
1FFFFCFFFFFFF800
3FFFFDFFFFFFF000
7F81FFFFFFFFC000
7F01FFFFFFFC0000
7E01FFFFFF800000
FE01FFFFF8000000
FF03FFFF80000000
7F9FFFFC00000000
7FFFFBF800000000
7FFFF3FE00000000
3FFFE7FF00000000
1FFFCFFF80000000
0FFF1FFF80000000
03FC3FFFC0000000
00003FFFC0000000
00007F8FC0000000
00007F07E0000000
00007F07E0000000
00007E07E0000000
0000FE07C0000000
0000FE0FC0000000
0000FE0FC0000000
00007E1FC0000000
00007FFF80000000
00007FFF80000000
00007FFF00000000
00003FFE00000000
00001FFC00000000
00000FF800000000
000007E000000000
ENDCHAR
STARTCHAR 007B
ENCODING 123
SWIDTH 992 0
DWIDTH 62 0
BBX 61 57 0 -8
BITMAP
0000000000FFF000
00000000007FC000
00000000007F8000
00000000007FC000
00000000003FE000
00000000003FF000
00000000003FF800
00000000001BFC00
000000000019FC00
000000000010FE00
0000000000107F00
0000000000003F80
0000000000001F80
0000000000001FC0
0000000000000FC0
00000000000007E0
00000000000007E0
00000000000003E0
00000000000003F0
00000000000003F0
00000000000001F0
00000000000001F0
00000000000001F8
00000000000001F8
00000000000000F8
00000000000000F8
00000000000000F8
FC000000000000F8
FC000000000000F8
7C000000000000F8
7C000000000001F8
7C000000000001F8
7C000000000001F8
7E000000000001F0
7E000000000003F0
3E000000000003F0
3F000000000003F0
3F000000000007E0
1F000000000007E0
1F80000000000FC0
1FC0000000000FC0
0FC0000000001F80
07E0000000003F80
07F0000000003F00
03F8000000007F00
01FC00000000FE00
01FE00000003FC00
00FF00000007F800
007FC000001FF000
003FF000003FE000
001FFC0001FFC000
000FFFC00FFF8000
0003FFFFFFFE0000
0001FFFFFFFC0000
00007FFFFFF00000
00000FFFFF800000
000001FFFC000000
ENDCHAR
STARTCHAR 007C
ENCODING 124
SWIDTH 976 0
DWIDTH 61 0
BBX 61 58 0 -9
BITMAP
003FF80000000000
001FF80000000000
0007F00000000000
000FF00000000000
001FF00000000000
003FE00000000000
007FE00000000000
00FFE00000000000
01FC400000000000
03F8400000000000
03F0400000000000
07F0000000000000
0FE0000000000000
0FC0000000000000
1F80000000000000
1F80000000000000
3F00000000000000
3F00000000000000
3E00000000000000
7E00000000000000
7E00000000000000
7C00000000000000
7C00000000000000
7C00000000000000
7C00000000000000
FC00000000000000
FC00000000000000
FC000000000000F8
FC000000000000F8
7C000000000000F8
7C000000000000F8
7C000000000001F8
7C000000000001F8
7E000000000001F0
7E000000000001F0
3E000000000003F0
3F000000000003F0
3F000000000007E0
1F000000000007E0
1F80000000000FC0
1FC0000000000FC0
0FC0000000001FC0
0FE0000000003F80
07F0000000003F00
03F8000000007F00
03FC00000000FE00
01FE00000001FC00
00FF00000007F800
007FC000000FF800
003FE000003FE000
001FFC0000FFC000
000FFF8007FF8000
0003FFFFFFFF0000
0001FFFFFFFC0000
00007FFFFFF00000
00001FFFFFC00000
000003FFFE000000
0000001700000000
ENDCHAR
STARTCHAR 007D
ENCODING 125
SWIDTH 496 0
DWIDTH 31 0
BBX 0 0 0 0
BITMAP
ENDCHAR
STARTCHAR 007E
ENCODING 126
SWIDTH 496 0
DWIDTH 31 0
BBX 0 0 0 0
BITMAP
ENDCHAR
STARTCHAR 00A0
ENCODING 160
SWIDTH 256 0
DWIDTH 16 0
BBX 0 0 0 0
BITMAP
ENDCHAR
STARTCHAR 00A1
ENCODING 161
SWIDTH 336 0
DWIDTH 21 0
BBX 0 0 0 0
BITMAP
ENDCHAR
STARTCHAR 00A2
ENCODING 162
SWIDTH 560 0
DWIDTH 35 0
BBX 0 0 0 0
BITMAP
ENDCHAR
STARTCHAR 00A3
ENCODING 163
SWIDTH 496 0
DWIDTH 31 0
BBX 0 0 0 0
BITMAP
ENDCHAR
STARTCHAR 00A4
ENCODING 164
SWIDTH 496 0
DWIDTH 31 0
BBX 0 0 0 0
BITMAP
ENDCHAR
STARTCHAR 00A5
ENCODING 165
SWIDTH 624 0
DWIDTH 39 0
BBX 0 0 0 0
BITMAP
ENDCHAR
STARTCHAR 00A6
ENCODING 166
SWIDTH 496 0
DWIDTH 31 0
BBX 0 0 0 0
BITMAP
ENDCHAR
STARTCHAR 00A7
ENCODING 167
SWIDTH 496 0
DWIDTH 31 0
BBX 0 0 0 0
BITMAP
ENDCHAR
STARTCHAR 00A8
ENCODING 168
SWIDTH 512 0
DWIDTH 32 0
BBX 0 0 0 0
BITMAP
ENDCHAR
STARTCHAR 00A9
ENCODING 169
SWIDTH 832 0
DWIDTH 52 0
BBX 0 0 0 0
BITMAP
ENDCHAR
STARTCHAR 00AA
ENCODING 170
SWIDTH 320 0
DWIDTH 20 0
BBX 0 0 0 0
BITMAP
ENDCHAR
STARTCHAR 00AB
ENCODING 171
SWIDTH 464 0
DWIDTH 29 0
BBX 0 0 0 0
BITMAP
ENDCHAR
STARTCHAR 00AC
ENCODING 172
SWIDTH 496 0
DWIDTH 31 0
BBX 0 0 0 0
BITMAP
ENDCHAR
STARTCHAR 00AD
ENCODING 173
SWIDTH 992 0
DWIDTH 62 0
BBX 61 60 0 -10
BITMAP
000000FFFC000000
00000FFFFF800000
00003FFFFFF00000
0000FFFFFFFC0000
0003FF0003FE0000
0007F800007F8000
001FE000001FC000
003F80000007E000
007E00000003F000
00FC00000001F800
01F8000000007C00
01FC000000C03E00
03FE000001C01F00
07CF000003C01F00
0787800007C00F80
0F83C0000FC00780
0F01E0000FC007C0
1E00F0001FC003C0
1E0078003FC001E0
3C003C007FC001E0
3C001F00FFC001F0
3C000001FFC000F0
78000FFFFFC000F0
78001FFFFFC000F0
78001FFFFFC00078
78001FFFFFC00078
78001FFFFFC00078
70001FFFFFC00078
F0001FFFFFC00078
F0001FFFFFC00078
F0001FFFFFC00078
F0001FFFFFC00078
70001FFFFFC00078
78001FFFFFC00078
78001FFFFFC00078
78001FFFFFC00078
78001FFFFFC000F0
78000003FFC000F0
3C000001FFC000F0
3C000000FFC001E0
3E0000007FC001E0
1E0000003FC803E0
1F0000001FC803C0
0F0000000FCC07C0
0F80000007CE0780
0780000003CF0F80
07C0000001C79F00
03E0000001C3FE00
01F000000081FE00
00F800000000FC00
00FC00000001F800
007E00000003F000
001F8000000FE000
000FE000001FC000
0007F80000FF0000
0003FF0007FE0000
0000FFFFFFF80000
00003FFFFFE00000
000007FFFF800000
000000FFFC000000
ENDCHAR
STARTCHAR 00AE
ENCODING 174
SWIDTH 832 0
DWIDTH 52 0
BBX 0 0 0 0
BITMAP
ENDCHAR
STARTCHAR 00AF
ENCODING 175
SWIDTH 336 0
DWIDTH 21 0
BBX 0 0 0 0
BITMAP
ENDCHAR
STARTCHAR 00B0
ENCODING 176
SWIDTH 336 0
DWIDTH 21 0
BBX 0 0 0 0
BITMAP
ENDCHAR
STARTCHAR 00B1
ENCODING 177
SWIDTH 496 0
DWIDTH 31 0
BBX 0 0 0 0
BITMAP
ENDCHAR
STARTCHAR 00B2
ENCODING 178
SWIDTH 496 0
DWIDTH 31 0
BBX 0 0 0 0
BITMAP
ENDCHAR
STARTCHAR 00B3
ENCODING 179
SWIDTH 496 0
DWIDTH 31 0
BBX 0 0 0 0
BITMAP
ENDCHAR
STARTCHAR 00B4
ENCODING 180
SWIDTH 512 0
DWIDTH 32 0
BBX 0 0 0 0
BITMAP
ENDCHAR
STARTCHAR 00B5
ENCODING 181
SWIDTH 576 0
DWIDTH 36 0
BBX 0 0 0 0
BITMAP
ENDCHAR
STARTCHAR 00B6
ENCODING 182
SWIDTH 512 0
DWIDTH 32 0
BBX 0 0 0 0
BITMAP
ENDCHAR
STARTCHAR 00B7
ENCODING 183
SWIDTH 256 0
DWIDTH 16 0
BBX 0 0 0 0
BITMAP
ENDCHAR
STARTCHAR 00B8
ENCODING 184
SWIDTH 512 0
DWIDTH 32 0
BBX 0 0 0 0
BITMAP
ENDCHAR
STARTCHAR 00B9
ENCODING 185
SWIDTH 496 0
DWIDTH 31 0
BBX 0 0 0 0
BITMAP
ENDCHAR
STARTCHAR 00BA
ENCODING 186
SWIDTH 352 0
DWIDTH 22 0
BBX 0 0 0 0
BITMAP
ENDCHAR
STARTCHAR 00BB
ENCODING 187
SWIDTH 464 0
DWIDTH 29 0
BBX 0 0 0 0
BITMAP
ENDCHAR
STARTCHAR 00BC
ENCODING 188
SWIDTH 848 0
DWIDTH 53 0
BBX 0 0 0 0
BITMAP
ENDCHAR
STARTCHAR 00BD
ENCODING 189
SWIDTH 960 0
DWIDTH 60 0
BBX 0 0 0 0
BITMAP
ENDCHAR
STARTCHAR 00BE
ENCODING 190
SWIDTH 848 0
DWIDTH 53 0
BBX 0 0 0 0
BITMAP
ENDCHAR
STARTCHAR 00BF
ENCODING 191
SWIDTH 368 0
DWIDTH 23 0
BBX 0 0 0 0
BITMAP
ENDCHAR
STARTCHAR 00C0
ENCODING 192
SWIDTH 752 0
DWIDTH 47 0
BBX 0 0 0 0
BITMAP
ENDCHAR
STARTCHAR 00C1
ENCODING 193
SWIDTH 752 0
DWIDTH 47 0
BBX 0 0 0 0
BITMAP
ENDCHAR
STARTCHAR 00C2
ENCODING 194
SWIDTH 752 0
DWIDTH 47 0
BBX 0 0 0 0
BITMAP
ENDCHAR
STARTCHAR 00C3
ENCODING 195
SWIDTH 752 0
DWIDTH 47 0
BBX 0 0 0 0
BITMAP
ENDCHAR
STARTCHAR 00C4
ENCODING 196
SWIDTH 752 0
DWIDTH 47 0
BBX 0 0 0 0
BITMAP
ENDCHAR
STARTCHAR 00C5
ENCODING 197
SWIDTH 752 0
DWIDTH 47 0
BBX 0 0 0 0
BITMAP
ENDCHAR
STARTCHAR 00C6
ENCODING 198
SWIDTH 1040 0
DWIDTH 65 0
BBX 0 0 0 0
BITMAP
ENDCHAR
STARTCHAR 00C7
ENCODING 199
SWIDTH 688 0
DWIDTH 43 0
BBX 0 0 0 0
BITMAP
ENDCHAR
STARTCHAR 00C8
ENCODING 200
SWIDTH 560 0
DWIDTH 35 0
BBX 0 0 0 0
BITMAP
ENDCHAR
STARTCHAR 00C9
ENCODING 201
SWIDTH 560 0
DWIDTH 35 0
BBX 0 0 0 0
BITMAP
ENDCHAR
STARTCHAR 00CA
ENCODING 202
SWIDTH 560 0
DWIDTH 35 0
BBX 0 0 0 0
BITMAP
ENDCHAR
STARTCHAR 00CB
ENCODING 203
SWIDTH 560 0
DWIDTH 35 0
BBX 0 0 0 0
BITMAP
ENDCHAR
STARTCHAR 00CC
ENCODING 204
SWIDTH 320 0
DWIDTH 20 0
BBX 0 0 0 0
BITMAP
ENDCHAR
STARTCHAR 00CD
ENCODING 205
SWIDTH 320 0
DWIDTH 20 0
BBX 0 0 0 0
BITMAP
ENDCHAR
STARTCHAR 00CE
ENCODING 206
SWIDTH 320 0
DWIDTH 20 0
BBX 0 0 0 0
BITMAP
ENDCHAR
STARTCHAR 00CF
ENCODING 207
SWIDTH 320 0
DWIDTH 20 0
BBX 0 0 0 0
BITMAP
ENDCHAR
STARTCHAR 00D0
ENCODING 208
SWIDTH 752 0
DWIDTH 47 0
BBX 0 0 0 0
BITMAP
ENDCHAR
STARTCHAR 00D1
ENCODING 209
SWIDTH 768 0
DWIDTH 48 0
BBX 0 0 0 0
BITMAP
ENDCHAR
STARTCHAR 00D2
ENCODING 210
SWIDTH 800 0
DWIDTH 50 0
BBX 0 0 0 0
BITMAP
ENDCHAR
STARTCHAR 00D3
ENCODING 211
SWIDTH 800 0
DWIDTH 50 0
BBX 0 0 0 0
BITMAP
ENDCHAR
STARTCHAR 00D4
ENCODING 212
SWIDTH 800 0
DWIDTH 50 0
BBX 0 0 0 0
BITMAP
ENDCHAR
STARTCHAR 00D5
ENCODING 213
SWIDTH 800 0
DWIDTH 50 0
BBX 0 0 0 0
BITMAP
ENDCHAR
STARTCHAR 00D6
ENCODING 214
SWIDTH 800 0
DWIDTH 50 0
BBX 0 0 0 0
BITMAP
ENDCHAR
STARTCHAR 00D7
ENCODING 215
SWIDTH 496 0
DWIDTH 31 0
BBX 0 0 0 0
BITMAP
ENDCHAR
STARTCHAR 00D8
ENCODING 216
SWIDTH 800 0
DWIDTH 50 0
BBX 0 0 0 0
BITMAP
ENDCHAR
STARTCHAR 00D9
ENCODING 217
SWIDTH 736 0
DWIDTH 46 0
BBX 0 0 0 0
BITMAP
ENDCHAR
STARTCHAR 00DA
ENCODING 218
SWIDTH 736 0
DWIDTH 46 0
BBX 0 0 0 0
BITMAP
ENDCHAR
STARTCHAR 00DB
ENCODING 219
SWIDTH 736 0
DWIDTH 46 0
BBX 0 0 0 0
BITMAP
ENDCHAR
STARTCHAR 00DC
ENCODING 220
SWIDTH 736 0
DWIDTH 46 0
BBX 0 0 0 0
BITMAP
ENDCHAR
STARTCHAR 00DD
ENCODING 221
SWIDTH 608 0
DWIDTH 38 0
BBX 0 0 0 0
BITMAP
ENDCHAR
STARTCHAR 00DE
ENCODING 222
SWIDTH 544 0
DWIDTH 34 0
BBX 0 0 0 0
BITMAP
ENDCHAR
STARTCHAR 00DF
ENCODING 223
SWIDTH 608 0
DWIDTH 38 0
BBX 0 0 0 0
BITMAP
ENDCHAR
STARTCHAR 00E0
ENCODING 224
SWIDTH 448 0
DWIDTH 28 0
BBX 0 0 0 0
BITMAP
ENDCHAR
STARTCHAR 00E1
ENCODING 225
SWIDTH 448 0
DWIDTH 28 0
BBX 0 0 0 0
BITMAP
ENDCHAR
STARTCHAR 00E2
ENCODING 226
SWIDTH 448 0
DWIDTH 28 0
BBX 0 0 0 0
BITMAP
ENDCHAR
STARTCHAR 00E3
ENCODING 227
SWIDTH 448 0
DWIDTH 28 0
BBX 0 0 0 0
BITMAP
ENDCHAR
STARTCHAR 00E4
ENCODING 228
SWIDTH 448 0
DWIDTH 28 0
BBX 0 0 0 0
BITMAP
ENDCHAR
STARTCHAR 00E5
ENCODING 229
SWIDTH 448 0
DWIDTH 28 0
BBX 0 0 0 0
BITMAP
ENDCHAR
STARTCHAR 00E6
ENCODING 230
SWIDTH 720 0
DWIDTH 45 0
BBX 0 0 0 0
BITMAP
ENDCHAR
STARTCHAR 00E7
ENCODING 231
SWIDTH 448 0
DWIDTH 28 0
BBX 0 0 0 0
BITMAP
ENDCHAR
STARTCHAR 00E8
ENCODING 232
SWIDTH 448 0
DWIDTH 28 0
BBX 0 0 0 0
BITMAP
ENDCHAR
STARTCHAR 00E9
ENCODING 233
SWIDTH 448 0
DWIDTH 28 0
BBX 0 0 0 0
BITMAP
ENDCHAR
STARTCHAR 00EA
ENCODING 234
SWIDTH 448 0
DWIDTH 28 0
BBX 0 0 0 0
BITMAP
ENDCHAR
STARTCHAR 00EB
ENCODING 235
SWIDTH 448 0
DWIDTH 28 0
BBX 0 0 0 0
BITMAP
ENDCHAR
STARTCHAR 00EC
ENCODING 236
SWIDTH 256 0
DWIDTH 16 0
BBX 0 0 0 0
BITMAP
ENDCHAR
STARTCHAR 00ED
ENCODING 237
SWIDTH 256 0
DWIDTH 16 0
BBX 0 0 0 0
BITMAP
ENDCHAR
STARTCHAR 00EE
ENCODING 238
SWIDTH 256 0
DWIDTH 16 0
BBX 0 0 0 0
BITMAP
ENDCHAR
STARTCHAR 00EF
ENCODING 239
SWIDTH 256 0
DWIDTH 16 0
BBX 0 0 0 0
BITMAP
ENDCHAR
STARTCHAR 00F0
ENCODING 240
SWIDTH 560 0
DWIDTH 35 0
BBX 0 0 0 0
BITMAP
ENDCHAR
STARTCHAR 00F1
ENCODING 241
SWIDTH 544 0
DWIDTH 34 0
BBX 0 0 0 0
BITMAP
ENDCHAR
STARTCHAR 00F2
ENCODING 242
SWIDTH 496 0
DWIDTH 31 0
BBX 0 0 0 0
BITMAP
ENDCHAR
STARTCHAR 00F3
ENCODING 243
SWIDTH 496 0
DWIDTH 31 0
BBX 0 0 0 0
BITMAP
ENDCHAR
STARTCHAR 00F4
ENCODING 244
SWIDTH 496 0
DWIDTH 31 0
BBX 0 0 0 0
BITMAP
ENDCHAR
STARTCHAR 00F5
ENCODING 245
SWIDTH 496 0
DWIDTH 31 0
BBX 0 0 0 0
BITMAP
ENDCHAR
STARTCHAR 00F6
ENCODING 246
SWIDTH 496 0
DWIDTH 31 0
BBX 0 0 0 0
BITMAP
ENDCHAR
STARTCHAR 00F7
ENCODING 247
SWIDTH 496 0
DWIDTH 31 0
BBX 0 0 0 0
BITMAP
ENDCHAR
STARTCHAR 00F8
ENCODING 248
SWIDTH 496 0
DWIDTH 31 0
BBX 0 0 0 0
BITMAP
ENDCHAR
STARTCHAR 00F9
ENCODING 249
SWIDTH 528 0
DWIDTH 33 0
BBX 0 0 0 0
BITMAP
ENDCHAR
STARTCHAR 00FA
ENCODING 250
SWIDTH 528 0
DWIDTH 33 0
BBX 0 0 0 0
BITMAP
ENDCHAR
STARTCHAR 00FB
ENCODING 251
SWIDTH 528 0
DWIDTH 33 0
BBX 0 0 0 0
BITMAP
ENDCHAR
STARTCHAR 00FC
ENCODING 252
SWIDTH 528 0
DWIDTH 33 0
BBX 0 0 0 0
BITMAP
ENDCHAR
STARTCHAR 00FD
ENCODING 253
SWIDTH 432 0
DWIDTH 27 0
BBX 0 0 0 0
BITMAP
ENDCHAR
STARTCHAR 00FE
ENCODING 254
SWIDTH 496 0
DWIDTH 31 0
BBX 0 0 0 0
BITMAP
ENDCHAR
STARTCHAR 00FF
ENCODING 255
SWIDTH 432 0
DWIDTH 27 0
BBX 0 0 0 0
BITMAP
ENDCHAR
STARTCHAR 0131
ENCODING 305
SWIDTH 256 0
DWIDTH 16 0
BBX 0 0 0 0
BITMAP
ENDCHAR
STARTCHAR 02C6
ENCODING 710
SWIDTH 512 0
DWIDTH 32 0
BBX 0 0 0 0
BITMAP
ENDCHAR
STARTCHAR 02C7
ENCODING 711
SWIDTH 512 0
DWIDTH 32 0
BBX 0 0 0 0
BITMAP
ENDCHAR
STARTCHAR 02C9
ENCODING 713
SWIDTH 512 0
DWIDTH 32 0
BBX 0 0 0 0
BITMAP
ENDCHAR
STARTCHAR 02D8
ENCODING 728
SWIDTH 512 0
DWIDTH 32 0
BBX 0 0 0 0
BITMAP
ENDCHAR
STARTCHAR 02D9
ENCODING 729
SWIDTH 512 0
DWIDTH 32 0
BBX 0 0 0 0
BITMAP
ENDCHAR
STARTCHAR 02DA
ENCODING 730
SWIDTH 512 0
DWIDTH 32 0
BBX 0 0 0 0
BITMAP
ENDCHAR
STARTCHAR 02DB
ENCODING 731
SWIDTH 512 0
DWIDTH 32 0
BBX 0 0 0 0
BITMAP
ENDCHAR
STARTCHAR 02DC
ENCODING 732
SWIDTH 512 0
DWIDTH 32 0
BBX 0 0 0 0
BITMAP
ENDCHAR
STARTCHAR 02DD
ENCODING 733
SWIDTH 512 0
DWIDTH 32 0
BBX 0 0 0 0
BITMAP
ENDCHAR
STARTCHAR 037E
ENCODING 894
SWIDTH 992 0
DWIDTH 62 0
BBX 61 60 0 -10
BITMAP
0000000780000000
0000000780000000
0000000780000000
0000000780000000
0000000780000000
0000000780000000
0000000780000000
0000000780000000
0000000780000000
0000000780000000
0000000780000000
0000000780000000
0000000780000000
0000000780000000
0000000780000000
0000000780000000
0000000780000000
0000000780000000
0000000780000000
0000000780000000
0000000780000000
0000000780000000
0000000780000000
0000000780000000
0000000780000000
0000000780000000
0000000780000000
0000000780000000
FFFFFFFFFFFFFFF8
FFFFFFFFFFFFFFF8
FFFFFFFFFFFFFFF8
FFFFFFFFFFFFFFF8
0000000780000000
0000000780000000
0000000780000000
0000000780000000
0000000780000000
0000000780000000
0000000780000000
0000000780000000
0000000780000000
0000000780000000
0000000780000000
0000000780000000
0000000780000000
0000000780000000
0000000780000000
0000000780000000
0000000780000000
0000000780000000
0000000780000000
0000000780000000
0000000780000000
0000000780000000
0000000780000000
0000000780000000
0000000780000000
0000000780000000
0000000780000000
0000000780000000
ENDCHAR
STARTCHAR 2013
ENCODING 8211
SWIDTH 544 0
DWIDTH 34 0
BBX 0 0 0 0
BITMAP
ENDCHAR
STARTCHAR 2014
ENCODING 8212
SWIDTH 1008 0
DWIDTH 63 0
BBX 0 0 0 0
BITMAP
ENDCHAR
STARTCHAR 2018
ENCODING 8216
SWIDTH 272 0
DWIDTH 17 0
BBX 0 0 0 0
BITMAP
ENDCHAR
STARTCHAR 2019
ENCODING 8217
SWIDTH 272 0
DWIDTH 17 0
BBX 0 0 0 0
BITMAP
ENDCHAR
STARTCHAR 201A
ENCODING 8218
SWIDTH 272 0
DWIDTH 17 0
BBX 0 0 0 0
BITMAP
ENDCHAR
STARTCHAR 201C
ENCODING 8220
SWIDTH 448 0
DWIDTH 28 0
BBX 0 0 0 0
BITMAP
ENDCHAR
STARTCHAR 201D
ENCODING 8221
SWIDTH 448 0
DWIDTH 28 0
BBX 0 0 0 0
BITMAP
ENDCHAR
STARTCHAR 201E
ENCODING 8222
SWIDTH 448 0
DWIDTH 28 0
BBX 0 0 0 0
BITMAP
ENDCHAR
STARTCHAR 2020
ENCODING 8224
SWIDTH 496 0
DWIDTH 31 0
BBX 0 0 0 0
BITMAP
ENDCHAR
STARTCHAR 2021
ENCODING 8225
SWIDTH 496 0
DWIDTH 31 0
BBX 0 0 0 0
BITMAP
ENDCHAR
STARTCHAR 2022
ENCODING 8226
SWIDTH 512 0
DWIDTH 32 0
BBX 0 0 0 0
BITMAP
ENDCHAR
STARTCHAR 2026
ENCODING 8230
SWIDTH 1008 0
DWIDTH 63 0
BBX 0 0 0 0
BITMAP
ENDCHAR
STARTCHAR 2039
ENCODING 8249
SWIDTH 304 0
DWIDTH 19 0
BBX 0 0 0 0
BITMAP
ENDCHAR
STARTCHAR 203A
ENCODING 8250
SWIDTH 304 0
DWIDTH 19 0
BBX 0 0 0 0
BITMAP
ENDCHAR
STARTCHAR 2044
ENCODING 8260
SWIDTH 176 0
DWIDTH 11 0
BBX 0 0 0 0
BITMAP
ENDCHAR
STARTCHAR 20A3
ENCODING 8355
SWIDTH 496 0
DWIDTH 31 0
BBX 0 0 0 0
BITMAP
ENDCHAR
STARTCHAR 20A4
ENCODING 8356
SWIDTH 496 0
DWIDTH 31 0
BBX 0 0 0 0
BITMAP
ENDCHAR
STARTCHAR 20A7
ENCODING 8359
SWIDTH 992 0
DWIDTH 62 0
BBX 0 0 0 0
BITMAP
ENDCHAR
STARTCHAR 20AC
ENCODING 8364
SWIDTH 496 0
DWIDTH 31 0
BBX 0 0 0 0
BITMAP
ENDCHAR
STARTCHAR 2116
ENCODING 8470
SWIDTH 1120 0
DWIDTH 70 0
BBX 0 0 0 0
BITMAP
ENDCHAR
STARTCHAR 2122
ENCODING 8482
SWIDTH 736 0
DWIDTH 46 0
BBX 0 0 0 0
BITMAP
ENDCHAR
STARTCHAR 2202
ENCODING 8706
SWIDTH 496 0
DWIDTH 31 0
BBX 0 0 0 0
BITMAP
ENDCHAR
STARTCHAR 2206
ENCODING 8710
SWIDTH 528 0
DWIDTH 33 0
BBX 0 0 0 0
BITMAP
ENDCHAR
STARTCHAR 220F
ENCODING 8719
SWIDTH 752 0
DWIDTH 47 0
BBX 0 0 0 0
BITMAP
ENDCHAR
STARTCHAR 2211
ENCODING 8721
SWIDTH 592 0
DWIDTH 37 0
BBX 0 0 0 0
BITMAP
ENDCHAR
STARTCHAR 2212
ENCODING 8722
SWIDTH 496 0
DWIDTH 31 0
BBX 0 0 0 0
BITMAP
ENDCHAR
STARTCHAR 2215
ENCODING 8725
SWIDTH 176 0
DWIDTH 11 0
BBX 0 0 0 0
BITMAP
ENDCHAR
STARTCHAR 2219
ENCODING 8729
SWIDTH 256 0
DWIDTH 16 0
BBX 0 0 0 0
BITMAP
ENDCHAR
STARTCHAR 221A
ENCODING 8730
SWIDTH 496 0
DWIDTH 31 0
BBX 0 0 0 0
BITMAP
ENDCHAR
STARTCHAR 221E
ENCODING 8734
SWIDTH 496 0
DWIDTH 31 0
BBX 0 0 0 0
BITMAP
ENDCHAR
STARTCHAR 222B
ENCODING 8747
SWIDTH 320 0
DWIDTH 20 0
BBX 0 0 0 0
BITMAP
ENDCHAR
STARTCHAR 2248
ENCODING 8776
SWIDTH 496 0
DWIDTH 31 0
BBX 0 0 0 0
BITMAP
ENDCHAR
STARTCHAR 2264
ENCODING 8804
SWIDTH 496 0
DWIDTH 31 0
BBX 0 0 0 0
BITMAP
ENDCHAR
STARTCHAR 2265
ENCODING 8805
SWIDTH 496 0
DWIDTH 31 0
BBX 0 0 0 0
BITMAP
ENDCHAR
STARTCHAR F001
ENCODING 61441
SWIDTH 528 0
DWIDTH 33 0
BBX 0 0 0 0
BITMAP
ENDCHAR
STARTCHAR F002
ENCODING 61442
SWIDTH 528 0
DWIDTH 33 0
BBX 0 0 0 0
BITMAP
ENDCHAR
STARTCHAR FB01
ENCODING 64257
SWIDTH 528 0
DWIDTH 33 0
BBX 0 0 0 0
BITMAP
ENDCHAR
STARTCHAR FB02
ENCODING 64258
SWIDTH 528 0
DWIDTH 33 0
BBX 0 0 0 0
BITMAP
ENDCHAR
ENDFONT
